<svg width="49" height="49" viewBox="0 0 49 49" fill="none" xmlns="http://www.w3.org/2000/svg">
<path d="M41.2499 10.9398C41.9132 11.6126 42.3515 11.9361 42.2462 12.7869C42.2207 12.9936 42.1228 13.2424 41.9524 13.5334C41.5275 14.255 41.0959 14.9782 40.6575 15.7029C40.65 15.7155 40.6458 15.7298 40.6455 15.7446C40.6451 15.7593 40.6486 15.774 40.6556 15.7872C41.2432 16.8903 41.7195 18.0397 42.0845 19.2354C42.094 19.2679 42.1154 19.288 42.1486 19.2956C42.9181 19.4826 43.6818 19.674 44.4397 19.8699C45.5575 20.1589 45.9346 20.6163 45.9356 21.7571C45.9375 23.4843 45.9381 25.2111 45.9375 26.9375C45.9375 28.3396 45.682 28.82 44.3565 29.154C43.6208 29.3403 42.8842 29.5244 42.1467 29.7062C42.1148 29.7139 42.094 29.7337 42.0845 29.7656C41.7202 30.9612 41.2432 32.11 40.6537 33.2118C40.6473 33.2244 40.6442 33.2384 40.6447 33.2526C40.6452 33.2669 40.6493 33.2808 40.6566 33.2932C40.9533 33.7838 41.2468 34.2732 41.5371 34.7613C42.1735 35.8303 42.7018 36.6208 41.7438 37.5807C39.5483 39.7819 38.1482 41.181 37.5434 41.7782C36.8658 42.4472 36.1461 42.3582 35.3699 41.8969C34.6764 41.4847 33.9851 41.071 33.2961 40.6556C33.2835 40.6483 33.2692 40.6443 33.2547 40.6439C33.2401 40.6436 33.2257 40.647 33.2128 40.6537C32.1116 41.2452 30.9631 41.7224 29.7675 42.0854C29.752 42.0901 29.7381 42.0988 29.727 42.1105C29.7159 42.1223 29.7081 42.1367 29.7043 42.1524C29.4995 42.9793 29.2931 43.8001 29.0851 44.6149C28.8172 45.6666 28.2027 45.9365 27.1749 45.9365C25.4465 45.9372 23.7187 45.9375 21.9916 45.9375C20.6345 45.9375 20.1637 45.6398 19.8479 44.3622C19.6647 43.6202 19.4784 42.8782 19.2889 42.1362C19.2858 42.1233 19.2792 42.1115 19.27 42.1019C19.2608 42.0924 19.2491 42.0854 19.2363 42.0816C18.0394 41.7224 16.8906 41.2467 15.79 40.6547C15.7764 40.6471 15.761 40.6433 15.7454 40.6436C15.7298 40.644 15.7145 40.6484 15.701 40.6566C14.9648 41.1121 14.2205 41.5562 13.4683 41.9888C12.7266 42.4166 12.0662 42.3534 11.4537 41.7562C10.1005 40.4349 8.76129 39.0995 7.43612 37.7501C6.70877 37.0103 6.49153 36.4131 7.02842 35.5001C7.46228 34.7638 7.9006 34.0298 8.34338 33.298C8.35097 33.2855 8.35514 33.2711 8.35547 33.2564C8.35581 33.2416 8.3523 33.2269 8.3453 33.2137C7.7564 32.11 7.27948 30.9596 6.91454 29.7627C6.90433 29.7295 6.88232 29.7085 6.8485 29.6995C6.12435 29.5183 5.40434 29.3384 4.68848 29.1598C3.43764 28.8468 3.06057 28.4238 3.06153 27.1519C3.06344 25.4305 3.06344 23.7092 3.06153 21.9878C3.06057 20.9255 3.22327 20.2182 4.31045 19.9407C5.15519 19.7263 6.00121 19.5116 6.8485 19.2966C6.86401 19.2925 6.87823 19.2845 6.88979 19.2732C6.90135 19.262 6.90987 19.248 6.91454 19.2325C7.27885 18.0419 7.75353 16.8973 8.3386 15.7987C8.34765 15.7818 8.35214 15.7629 8.35164 15.7437C8.35113 15.7246 8.34565 15.7059 8.33573 15.6896C7.90634 14.9743 7.47312 14.2575 7.03608 13.5391C6.55373 12.7454 6.63795 12.0257 7.28873 11.38C8.61199 10.0683 9.93301 8.75395 11.2518 7.43707C11.9342 6.75566 12.5878 6.47334 13.4769 7.00449C14.2247 7.45047 14.9648 7.89485 15.6972 8.33764C15.7123 8.34695 15.7295 8.35211 15.7472 8.35262C15.7648 8.35312 15.7823 8.34894 15.7977 8.34051C16.8913 7.758 18.0305 7.2849 19.2153 6.92123C19.2354 6.91507 19.2537 6.90373 19.2683 6.8883C19.2828 6.87288 19.2933 6.8539 19.2985 6.83318C19.5059 6.0044 19.7151 5.17018 19.9263 4.33055C20.1809 3.31705 20.8508 3.06344 21.8385 3.06344C23.586 3.0628 25.3332 3.06216 27.0801 3.06152C28.1702 3.06152 28.8133 3.2826 29.0918 4.40328C29.2953 5.22186 29.5011 6.04044 29.7091 6.85902C29.7161 6.88773 29.7343 6.90656 29.7637 6.91549C30.9574 7.27406 32.1033 7.74874 33.2013 8.33955C33.2358 8.35805 33.2699 8.35742 33.3037 8.33764C33.8473 8.01416 34.3935 7.68654 34.9422 7.35477C35.9652 6.73652 36.682 6.37285 37.5998 7.2849C39.2089 8.88442 40.4256 10.1027 41.2499 10.9398ZM38.2736 24.5C38.2736 22.6912 37.9173 20.9001 37.2251 19.2291C36.5329 17.558 35.5184 16.0396 34.2394 14.7606C32.9604 13.4816 31.442 12.467 29.7709 11.7748C28.0998 11.0827 26.3088 10.7264 24.5 10.7264C20.847 10.7264 17.3436 12.1775 14.7606 14.7606C12.1775 17.3436 10.7264 20.847 10.7264 24.5C10.7264 28.153 12.1775 31.6563 14.7606 34.2394C17.3436 36.8224 20.847 38.2736 24.5 38.2736C26.3088 38.2736 28.0998 37.9173 29.7709 37.2251C31.442 36.5329 32.9604 35.5184 34.2394 34.2394C35.5184 32.9604 36.5329 31.442 37.2251 29.7709C37.9173 28.0998 38.2736 26.3088 38.2736 24.5Z" fill="#C90526"/>
<path d="M26.1978 12.3698C31.9333 13.1373 36.2476 17.91 36.7089 23.6732C36.7095 23.6811 36.7086 23.6889 36.706 23.6963C36.7035 23.7037 36.6994 23.7105 36.6941 23.7163C36.6888 23.7221 36.6824 23.7267 36.6752 23.7298C36.668 23.7329 36.6602 23.7345 36.6524 23.7345C36.1656 23.7351 35.6718 23.7355 35.1709 23.7355C34.5335 23.7355 34.1833 24.9404 33.9651 25.4399C33.9625 25.4452 33.9583 25.4495 33.9532 25.4524C33.948 25.4552 33.9421 25.4564 33.9363 25.4558C33.9304 25.4551 33.9249 25.4527 33.9205 25.4489C33.916 25.445 33.9129 25.4399 33.9115 25.4342C33.6033 24.0299 33.291 22.6215 32.9745 21.2089C32.9056 20.9014 32.8342 20.6943 32.7602 20.5878C32.4798 20.1839 31.7601 20.2078 31.5122 20.6414C31.4541 20.7435 31.398 20.9492 31.3438 21.2587C31.1358 22.4339 30.9252 23.612 30.7121 24.793C30.712 24.7986 30.7097 24.8039 30.7056 24.8077C30.7016 24.8116 30.6962 24.8137 30.6906 24.8135C30.685 24.8134 30.6797 24.8111 30.6758 24.807C30.672 24.803 30.6699 24.7976 30.67 24.792C30.4154 23.0298 30.1551 21.2631 29.8891 19.492C29.8444 19.1915 29.7806 18.9825 29.6977 18.8651C29.334 18.3455 28.5167 18.5244 28.353 19.1647C27.6806 21.7844 27.0234 24.3668 26.3816 26.9118C26.3452 27.0548 26.319 27.0528 26.3031 26.9061C25.9662 23.8666 25.6261 20.8085 25.2829 17.732C25.2535 17.4679 25.1897 17.2713 25.0915 17.1425C24.6656 16.5836 23.8158 16.8477 23.7325 17.6009C23.3835 20.7221 23.0358 23.8433 22.6893 26.9645C22.6874 26.9855 22.6807 26.9999 22.6692 27.0075C22.6616 27.0126 22.6533 27.0152 22.6443 27.0152C22.6246 27.0152 22.6144 27.0053 22.6137 26.9855C22.6112 26.9141 22.601 26.8436 22.5831 26.774C21.9368 24.2232 21.2898 21.6727 20.6422 19.1226C20.4795 18.4852 19.6058 18.3751 19.2727 18.9197C19.2051 19.0301 19.1499 19.2278 19.1072 19.513C18.8162 21.4596 18.5288 23.4002 18.2449 25.3347C18.244 25.3404 18.2412 25.3456 18.2368 25.3494C18.2325 25.3533 18.227 25.3555 18.2213 25.3557C18.2155 25.3559 18.2098 25.3542 18.2052 25.3507C18.2006 25.3472 18.1974 25.3422 18.1961 25.3366C17.9881 24.3974 17.7823 23.4745 17.5788 22.5679C17.3979 21.7621 16.2705 21.8884 16.0686 22.6827C15.8198 23.6646 15.4867 24.6561 15.1929 25.6667C15.1909 25.6733 15.1868 25.6792 15.1814 25.6835C15.1759 25.6878 15.1693 25.6903 15.1625 25.6908C15.1557 25.6912 15.149 25.6895 15.1432 25.6859C15.1375 25.6822 15.1332 25.6769 15.1307 25.6706C14.9055 25.1251 14.6624 24.585 14.4014 24.0503C14.1765 23.59 12.8137 23.7326 12.361 23.7355C12.3515 23.7356 12.342 23.7338 12.3332 23.73C12.3244 23.7263 12.3165 23.7207 12.3099 23.7137C12.3033 23.7067 12.2983 23.6984 12.2951 23.6893C12.2918 23.6802 12.2905 23.6705 12.2912 23.6608C12.8415 16.5625 19.1196 11.4232 26.1978 12.3698Z" fill="#C90526"/>
<path d="M33.0712 28.3952C33.3076 28.7398 33.855 28.8106 34.1708 28.5359C34.264 28.4536 34.3632 28.2966 34.4685 28.065C34.88 27.1527 35.2887 26.2362 35.6944 25.3155C35.7009 25.3007 35.7116 25.2882 35.7252 25.2793C35.7388 25.2705 35.7547 25.2658 35.771 25.2657H36.6515C36.6827 25.2657 36.6971 25.2814 36.6945 25.3126C36.0859 33.4369 28.0487 38.7972 20.2958 36.0007C15.77 34.369 12.6692 30.1456 12.2893 25.3308C12.2854 25.2874 12.3055 25.2657 12.3496 25.2657H13.2348C13.268 25.2657 13.2913 25.281 13.3047 25.3117C13.7111 26.2317 14.1201 27.1488 14.5316 28.0631C14.7699 28.5924 15.2101 28.9359 15.7623 28.5656C16.1385 28.3139 16.5624 26.4218 16.7079 25.9098C16.7095 25.9049 16.7127 25.9006 16.717 25.8977C16.7213 25.8947 16.7264 25.8933 16.7316 25.8935C16.7368 25.8937 16.7417 25.8956 16.7458 25.8989C16.7498 25.9022 16.7526 25.9067 16.7538 25.9117C17.0467 27.2209 17.3399 28.5369 17.6333 29.8595C17.7721 30.4835 18.6373 30.6337 19.0029 30.0901C19.0718 29.988 19.1228 29.826 19.156 29.6039C19.468 27.51 19.7784 25.4163 20.0872 23.323C20.088 23.318 20.0905 23.3134 20.0943 23.31C20.098 23.3067 20.1029 23.3047 20.1079 23.3045C20.113 23.3042 20.118 23.3058 20.122 23.3088C20.1261 23.3118 20.129 23.3161 20.1302 23.321C20.8257 26.069 21.5253 28.8224 22.229 31.5812C22.4529 32.4559 23.6339 32.2913 23.7402 31.3515C23.9922 29.1267 24.2391 26.9048 24.4809 24.6858C24.4819 24.6813 24.4844 24.6773 24.4879 24.6744C24.4915 24.6716 24.4959 24.67 24.5005 24.67C24.5051 24.67 24.5095 24.6716 24.5131 24.6744C24.5167 24.6773 24.5191 24.6813 24.5201 24.6858C24.7575 26.8818 25.0009 29.0808 25.2504 31.2826C25.2797 31.5429 25.3365 31.7321 25.4207 31.8501C25.682 32.2186 26.2935 32.254 26.5892 31.9123C26.6805 31.807 26.7599 31.622 26.8275 31.3572C27.5121 28.6737 28.1926 25.995 28.8689 23.321C28.87 23.3162 28.8727 23.312 28.8766 23.3091C28.8805 23.3062 28.8854 23.3048 28.8904 23.3052C28.8953 23.3055 28.9001 23.3076 28.9038 23.311C28.9076 23.3144 28.9101 23.319 28.911 23.3239C29.223 25.4319 29.5359 27.5409 29.8498 29.6508C29.9972 30.6414 31.2232 30.6825 31.383 29.782C31.6631 28.2022 31.9426 26.6231 32.2214 25.0447C32.2223 25.0404 32.2247 25.0366 32.2281 25.0339C32.2315 25.0312 32.2357 25.0298 32.24 25.0298C32.2444 25.0298 32.2486 25.0312 32.252 25.0339C32.2554 25.0366 32.2577 25.0404 32.2587 25.0447C32.4654 25.9774 32.6737 26.9141 32.8836 27.8545C32.9423 28.1186 33.0049 28.2989 33.0712 28.3952Z" fill="#C90526"/>
</svg>
