<svg width="49" height="49" viewBox="0 0 49 49" fill="none" xmlns="http://www.w3.org/2000/svg">
<path d="M24.076 0H24.8876C29.779 0.249785 33.6052 3.72381 34.4378 8.54438C34.4394 8.55278 34.439 8.56142 34.4368 8.56968C34.4346 8.57795 34.4305 8.58564 34.4249 8.59221C34.4194 8.59878 34.4124 8.60407 34.4046 8.60771C34.3967 8.61136 34.3881 8.61326 34.3794 8.61328H27.4668C27.4414 8.61328 27.4171 8.62336 27.3991 8.64131C27.3812 8.65926 27.3711 8.6836 27.3711 8.70899V11.4241C27.3711 11.4643 27.3909 11.4844 27.4304 11.4844H34.501C34.5137 11.4844 34.5258 11.4894 34.5348 11.4984C34.5438 11.5074 34.5488 11.5195 34.5488 11.5322V15.7432C34.5488 15.7559 34.5438 15.768 34.5348 15.777C34.5258 15.786 34.5137 15.791 34.501 15.791H27.4189C27.4063 15.791 27.3941 15.7961 27.3851 15.805C27.3761 15.814 27.3711 15.8262 27.3711 15.8389V18.5903C27.3711 18.6382 27.395 18.6621 27.4429 18.6621H34.501C34.5137 18.6621 34.5258 18.6672 34.5348 18.6761C34.5438 18.6851 34.5488 18.6973 34.5488 18.71V22.9209C34.5488 22.9336 34.5438 22.9458 34.5348 22.9547C34.5258 22.9637 34.5137 22.9688 34.501 22.9688H27.4189C27.4063 22.9688 27.3941 22.9738 27.3851 22.9828C27.3761 22.9917 27.3711 23.0039 27.3711 23.0166V25.7681C27.3711 25.8159 27.395 25.8398 27.4429 25.8398H34.3823C34.4148 25.8398 34.4295 25.8561 34.4263 25.8887C34.1612 28.486 32.4261 31.0719 30.3532 32.5582C24.2244 36.9558 15.7317 33.2884 14.5718 25.8944C14.566 25.858 14.5813 25.8398 14.6177 25.8398H21.5811C21.5937 25.8398 21.6059 25.8348 21.6149 25.8258C21.6239 25.8169 21.6289 25.8047 21.6289 25.792V23.0405C21.6289 22.9927 21.605 22.9688 21.5571 22.9688H14.499C14.4863 22.9688 14.4742 22.9637 14.4652 22.9547C14.4562 22.9458 14.4512 22.9336 14.4512 22.9209V18.71C14.4512 18.6973 14.4562 18.6851 14.4652 18.6761C14.4742 18.6672 14.4863 18.6621 14.499 18.6621H21.5811C21.5937 18.6621 21.6059 18.6571 21.6149 18.6481C21.6239 18.6391 21.6289 18.627 21.6289 18.6143V15.8628C21.6289 15.8149 21.605 15.791 21.5571 15.791H14.499C14.4863 15.791 14.4742 15.786 14.4652 15.777C14.4562 15.768 14.4512 15.7559 14.4512 15.7432V11.5322C14.4512 11.5195 14.4562 11.5074 14.4652 11.4984C14.4742 11.4894 14.4863 11.4844 14.499 11.4844H21.5811C21.5937 11.4844 21.6059 11.4793 21.6149 11.4704C21.6239 11.4614 21.6289 11.4492 21.6289 11.4365V8.66113C21.6289 8.64844 21.6239 8.63627 21.6149 8.6273C21.6059 8.61832 21.5937 8.61328 21.5811 8.61328H14.6187C14.6095 8.61327 14.6004 8.61126 14.5921 8.60739C14.5838 8.60352 14.5764 8.59788 14.5705 8.59086C14.5645 8.58385 14.5602 8.57563 14.5578 8.56677C14.5554 8.55792 14.5549 8.54864 14.5564 8.53959C15.391 3.72572 19.1913 0.292852 24.076 0Z" fill="#C90526"/>
<path d="M35.9672 49H13.0281L13.0233 46.1902C13.0233 46.1493 13.0437 46.1289 13.0845 46.1289H23.0166C23.0293 46.1289 23.0415 46.1239 23.0504 46.1149C23.0594 46.1059 23.0645 46.0937 23.0645 46.0811V40.1743C23.0645 40.1617 23.0599 40.1496 23.0516 40.1404C23.0432 40.1311 23.0318 40.1255 23.0195 40.1245C14.9096 39.333 8.75972 32.5659 8.71761 24.4502C8.71697 24.4196 8.73197 24.4043 8.76259 24.4043H11.5093C11.5469 24.4043 11.5676 24.4231 11.5715 24.4608C11.6069 24.7775 11.5973 25.1479 11.6193 25.4054C12.3046 33.253 19.7187 38.844 27.508 36.9653C33.3478 35.5566 37.3386 30.3972 37.4199 24.4521C37.4202 24.4394 37.4254 24.4272 37.4346 24.4183C37.4437 24.4093 37.456 24.4043 37.4687 24.4043H40.2403C40.2473 24.4043 40.2542 24.4057 40.2607 24.4084C40.2671 24.4111 40.273 24.4151 40.2779 24.4201C40.2828 24.425 40.2866 24.431 40.2892 24.4375C40.2918 24.444 40.2931 24.4509 40.2929 24.4579C40.1724 32.1601 34.8599 38.4937 27.307 39.9455C26.929 40.0183 26.4265 40.0671 25.9892 40.1312C25.9534 40.1363 25.9356 40.157 25.9356 40.1934V46.0811C25.9356 46.0937 25.9406 46.1059 25.9496 46.1149C25.9585 46.1239 25.9707 46.1289 25.9834 46.1289H35.9346C35.964 46.1289 35.9786 46.1436 35.9786 46.1729L35.9672 49Z" fill="#C90526"/>
</svg>
