<svg width="49" height="49" viewBox="0 0 49 49" fill="none" xmlns="http://www.w3.org/2000/svg">
<g clip-path="url(#clip0_22_214)">
<path d="M49 7.87823V38.1424C48.8086 40.2862 47.128 41.7992 44.9805 41.7992C39.8763 41.7986 34.7712 41.798 29.6651 41.7973C29.6313 41.7973 29.6201 41.8133 29.6316 41.8452L31.426 46.8639C31.4382 46.8977 31.4621 46.9149 31.4978 46.9155C32.6246 46.9219 33.751 46.9232 34.8771 46.9194C35.8561 46.9155 36.014 48.4497 34.6972 48.4497C27.8799 48.4503 21.0627 48.45 14.2454 48.4487C13.0156 48.4487 13.1008 46.9194 14.188 46.9194C15.3007 46.9187 16.4045 46.9184 17.4993 46.9184C17.5159 46.9184 17.5321 46.9132 17.5456 46.9036C17.5592 46.894 17.5694 46.8805 17.5749 46.8648L19.3818 41.826C19.383 41.8226 19.3834 41.819 19.3829 41.8154C19.3824 41.8118 19.3811 41.8083 19.3791 41.8054C19.377 41.8024 19.3743 41.7999 19.3711 41.7982C19.3679 41.7965 19.3644 41.7955 19.3607 41.7954C14.4946 41.7999 9.62614 41.8002 4.75549 41.7964C3.90883 41.7951 3.32951 41.759 3.01752 41.6882C1.30635 41.2978 0.128242 39.8373 0 38.0831V7.86674C0.129199 6.20534 1.22309 4.78319 2.81941 4.34104C3.1799 4.24151 3.81345 4.19079 4.72008 4.18887C6.22389 4.18568 7.72803 4.186 9.23248 4.18983C9.26757 4.18983 9.2848 4.17261 9.28416 4.13815C9.27746 3.62327 9.25162 3.05958 9.39518 2.58776C9.83158 1.15221 10.9341 0.548327 12.3725 0.549284C20.4007 0.552474 28.4286 0.551836 36.4562 0.54737C36.9928 0.546732 37.4075 0.58948 37.7003 0.675613C38.7716 0.988881 39.4281 1.71846 39.6699 2.86434C39.7513 3.25098 39.7101 3.73428 39.7187 4.15825C39.7193 4.17867 39.7296 4.18887 39.7493 4.18887C41.5192 4.18568 43.2865 4.1876 45.0513 4.19462C47.1893 4.20419 48.8411 5.74979 49 7.87823ZM38.1855 3.35434C38.1855 3.01651 38.0513 2.69251 37.8125 2.45362C37.5736 2.21474 37.2496 2.08053 36.9117 2.08053H12.0883C11.7504 2.08053 11.4264 2.21474 11.1875 2.45362C10.9487 2.69251 10.8145 3.01651 10.8145 3.35434V24.0875C10.8145 24.4253 10.9487 24.7493 11.1875 24.9882C11.4264 25.2271 11.7504 25.3613 12.0883 25.3613H36.9117C37.2496 25.3613 37.5736 25.2271 37.8125 24.9882C38.0513 24.7493 38.1855 24.4253 38.1855 24.0875V3.35434ZM3.18787 8.30889C3.18883 7.58059 3.51805 7.36718 4.23486 7.36813C5.89946 7.37132 7.56629 7.371 9.23535 7.36718C9.24804 7.36718 9.26021 7.36213 9.26919 7.35316C9.27816 7.34419 9.2832 7.33202 9.2832 7.31932V5.76606C9.2832 5.75312 9.27806 5.7407 9.26891 5.73155C9.25975 5.7224 9.24734 5.71725 9.23439 5.71725C7.6151 5.71917 5.99452 5.71885 4.37268 5.7163C3.83419 5.71566 3.42809 5.75936 3.15437 5.84741C1.91502 6.24745 1.53029 7.24659 1.53029 8.45915C1.53157 16.4172 1.53189 24.366 1.53125 32.3055C1.53125 32.3233 1.53831 32.3403 1.55087 32.3529C1.56343 32.3654 1.58047 32.3725 1.59824 32.3725L3.11514 32.3734C3.13341 32.3734 3.15094 32.3661 3.16386 32.353C3.17678 32.3399 3.18404 32.3221 3.18404 32.3036C3.17894 24.3111 3.18021 16.3129 3.18787 8.30889ZM47.4276 32.3763C47.4385 32.3763 47.449 32.3721 47.4567 32.3645C47.4644 32.357 47.4688 32.3468 47.4688 32.3361C47.4681 24.4004 47.4684 16.4539 47.4697 8.49647C47.4697 7.27817 47.1032 6.25128 45.8552 5.85507C45.5572 5.76064 45.0647 5.71406 44.3775 5.71534C42.8431 5.71789 41.3067 5.71885 39.7685 5.71821C39.734 5.71821 39.7168 5.73544 39.7168 5.76989V7.32028C39.7168 7.33348 39.722 7.34614 39.7314 7.35547C39.7407 7.3648 39.7534 7.37005 39.7666 7.37005C41.4796 7.36813 43.1946 7.36845 44.9116 7.371C45.6016 7.37196 45.8179 7.71171 45.8179 8.38641C45.8179 16.3566 45.8179 24.3283 45.8179 32.3017C45.8179 32.3195 45.8249 32.3367 45.8374 32.3494C45.85 32.3621 45.867 32.3694 45.8849 32.3696L47.4276 32.3763ZM44.2627 32.3715C44.269 32.3715 44.2751 32.369 44.2796 32.3645C44.2841 32.36 44.2866 32.3539 44.2866 32.3476V8.94532C44.2866 8.91533 44.2716 8.90034 44.2416 8.90034H39.7656C39.7527 8.90034 39.7402 8.90548 39.7311 8.91463C39.7219 8.92379 39.7168 8.9362 39.7168 8.94915C39.7168 13.8224 39.7168 18.6968 39.7168 23.5726C39.7162 24.1781 39.6709 24.6279 39.5809 24.922C39.1933 26.1843 38.0793 26.8935 36.7739 26.8935C28.7463 26.8935 20.7191 26.8928 12.6921 26.8916C11.9993 26.8916 11.5067 26.8434 11.2145 26.7471C10.0469 26.3633 9.28129 25.2885 9.28225 24.0454C9.28288 19.0063 9.2832 13.9742 9.2832 8.94915C9.2832 8.9362 9.27806 8.92379 9.26891 8.91463C9.25975 8.90548 9.24734 8.90034 9.23439 8.90034H4.76123C4.74854 8.90034 4.73637 8.90538 4.72739 8.91435C4.71842 8.92333 4.71338 8.9355 4.71338 8.94819V32.3237C4.71338 32.3556 4.72933 32.3715 4.76123 32.3715H44.2627ZM1.67098 38.6898C2.03561 39.7187 2.9802 40.2737 4.06738 40.2737C17.4888 40.2693 30.9099 40.2674 44.3306 40.268C45.0446 40.268 45.5525 40.2198 45.8542 40.1235C47.1156 39.7206 47.4812 38.6707 47.4735 37.4438C47.4659 36.2749 47.4652 35.1115 47.4716 33.9535C47.4716 33.94 47.4663 33.9271 47.4568 33.9176C47.4473 33.9081 47.4343 33.9028 47.4209 33.9028H1.58006C1.56737 33.9028 1.5552 33.9078 1.54622 33.9168C1.53725 33.9258 1.53221 33.9379 1.53221 33.9506C1.53029 35.1361 1.53061 36.3215 1.53316 37.507C1.5338 38.0384 1.57974 38.4327 1.67098 38.6898ZM29.6986 46.9366C29.7286 46.9589 29.7582 46.9458 29.7876 46.8974C29.7924 46.889 29.7953 46.8797 29.7961 46.8701C29.797 46.8605 29.7957 46.8509 29.7924 46.8418L27.9941 41.8136C27.9901 41.8021 27.9828 41.7922 27.973 41.7852C27.9632 41.7781 27.9515 41.7743 27.9396 41.7744H21.1054C21.0813 41.7743 21.0578 41.7818 21.0381 41.7957C21.0184 41.8095 21.0035 41.8292 20.9954 41.8519L19.1952 46.8792C19.1937 46.8836 19.1932 46.8883 19.1939 46.893C19.1946 46.8976 19.1963 46.902 19.199 46.9059C19.2017 46.9097 19.2053 46.9128 19.2095 46.915C19.2136 46.9172 19.2182 46.9184 19.2229 46.9184H29.644C29.6645 46.9184 29.6826 46.9245 29.6986 46.9366Z" fill="#C90526"/>
<path d="M33.6378 9.15972L30.2604 9.72916C30.2304 9.73426 30.2154 9.75213 30.2154 9.78275C30.2231 10.6938 30.2212 11.6033 30.2097 12.5112C30.2008 13.2462 30.1912 13.6453 30.181 13.7085C29.9063 15.3986 27.7338 16.0666 26.5749 14.7928C25.1403 13.2166 26.5797 10.8958 28.6296 11.3264C28.6673 11.3347 28.6861 11.3194 28.6861 11.2805C28.6874 9.6778 28.688 8.07987 28.688 6.48673C28.688 6.00152 28.8459 5.61966 29.3397 5.53545C30.9641 5.25918 32.5885 4.98292 34.2129 4.70666C34.8771 4.59373 35.215 4.96506 35.2169 5.59C35.2236 7.84668 35.1413 10.1416 35.2264 12.3935C35.3011 14.343 32.8913 15.4111 31.5744 13.9315C30.1752 12.36 31.5993 10.0268 33.6378 10.4823C33.6729 10.49 33.6904 10.4763 33.6904 10.4412V9.2047C33.6903 9.19805 33.6889 9.19148 33.6861 9.18546C33.6833 9.17944 33.6792 9.17411 33.6742 9.16983C33.6692 9.16555 33.6634 9.16243 33.6571 9.16069C33.6508 9.15894 33.6442 9.15861 33.6378 9.15972ZM30.2508 6.93271C30.2426 6.93406 30.2352 6.93825 30.2297 6.94455C30.2243 6.95085 30.2213 6.95885 30.2212 6.96716L30.2135 8.1424C30.2134 8.14757 30.2145 8.1527 30.2166 8.15742C30.2188 8.16214 30.2219 8.16633 30.2258 8.16971C30.2297 8.17308 30.2344 8.17556 30.2393 8.17696C30.2443 8.17836 30.2496 8.17865 30.2547 8.17781L33.654 7.60359C33.6622 7.60224 33.6697 7.59805 33.6751 7.59175C33.6806 7.58546 33.6836 7.57745 33.6837 7.56914L33.6942 6.39295C33.6943 6.38767 33.6932 6.38245 33.6911 6.37765C33.6889 6.37285 33.6857 6.3686 33.6816 6.3652C33.6776 6.36181 33.6728 6.35936 33.6677 6.35803C33.6626 6.35671 33.6573 6.35654 33.6521 6.35754L30.2508 6.93271ZM33.6904 12.5132C33.6904 12.3621 33.6304 12.2173 33.5236 12.1105C33.4168 12.0037 33.272 11.9437 33.121 11.9437C32.97 11.9437 32.8251 12.0037 32.7183 12.1105C32.6115 12.2173 32.5515 12.3621 32.5515 12.5132C32.5515 12.6642 32.6115 12.809 32.7183 12.9158C32.8251 13.0226 32.97 13.0826 33.121 13.0826C33.272 13.0826 33.4168 13.0226 33.5236 12.9158C33.6304 12.809 33.6904 12.6642 33.6904 12.5132ZM28.6765 13.3592C28.6765 13.2082 28.6165 13.0633 28.5097 12.9565C28.4029 12.8497 28.2581 12.7897 28.1071 12.7897C27.9561 12.7897 27.8112 12.8497 27.7044 12.9565C27.5976 13.0633 27.5377 13.2082 27.5377 13.3592C27.5377 13.5102 27.5976 13.655 27.7044 13.7618C27.8112 13.8686 27.9561 13.9286 28.1071 13.9286C28.2581 13.9286 28.4029 13.8686 28.5097 13.7618C28.6165 13.655 28.6765 13.5102 28.6765 13.3592Z" fill="#C90526"/>
<path d="M23.298 9.11667C24.0444 10.0794 23.7047 11.4652 22.6577 12.0787C20.7034 13.2233 18.7441 14.3599 16.7796 15.4886C15.7259 16.0953 14.3325 15.545 13.9095 14.4177C13.8246 14.1912 13.7822 13.8537 13.7822 13.4051C13.7816 11.3596 13.7809 9.31446 13.7803 7.2696C13.7796 6.8249 13.8221 6.48228 13.9076 6.24175C14.277 5.19763 15.5316 4.61001 16.5796 5.05599C16.6 5.06492 16.9056 5.23687 17.4964 5.57183C19.1304 6.49951 20.7554 7.44282 22.3715 8.40177C22.8316 8.6742 23.1404 8.91251 23.298 9.11667ZM16.0676 6.5078C15.9911 6.46364 15.9043 6.44038 15.816 6.44036C15.7277 6.44034 15.6409 6.46355 15.5644 6.50768C15.4879 6.5518 15.4243 6.61528 15.3801 6.69173C15.3359 6.76819 15.3126 6.85493 15.3125 6.94325V13.7018C15.3126 13.7901 15.3359 13.8769 15.3801 13.9533C15.4243 14.0298 15.4879 14.0933 15.5644 14.1374C15.6409 14.1815 15.7277 14.2047 15.816 14.2047C15.9043 14.2047 15.9911 14.1814 16.0676 14.1373L21.917 10.758C21.9932 10.7137 22.0566 10.6502 22.1006 10.5738C22.1446 10.4974 22.1678 10.4107 22.1678 10.3225C22.1678 10.2343 22.1446 10.1477 22.1006 10.0713C22.0566 9.99485 21.9932 9.93133 21.917 9.88708L16.0676 6.5078Z" fill="#C90526"/>
<path d="M21.272 19.7837C25.6501 19.7894 30.0278 19.7897 34.4053 19.7846C35.4552 19.7837 35.549 21.3168 34.302 21.3168C29.9519 21.3181 25.6099 21.3184 21.2758 21.3178C21.2667 21.3178 21.2577 21.3196 21.2493 21.3231C21.241 21.3267 21.2334 21.3319 21.2271 21.3384C21.2207 21.3449 21.2158 21.3526 21.2125 21.3611C21.2092 21.3695 21.2076 21.3786 21.2078 21.3877C21.2461 23.0998 19.4469 22.7486 18.3846 22.7543C17.4467 22.76 16.7978 22.4356 16.8141 21.3733C16.8148 21.3401 16.7985 21.3235 16.7653 21.3235C15.717 21.3108 15.058 21.3089 14.7881 21.3178C13.454 21.3609 13.4454 19.7856 14.7039 19.7885C15.3891 19.7897 16.075 19.7885 16.7615 19.7846C16.7959 19.784 16.8132 19.7664 16.8132 19.732C16.8065 18.5376 17.5558 18.3491 18.5875 18.352C19.7445 18.3558 21.2011 18.0859 21.2174 19.7301C21.2181 19.7658 21.2362 19.7837 21.272 19.7837ZM19.692 19.9399C19.692 19.9326 19.6906 19.9254 19.6878 19.9186C19.6851 19.9119 19.681 19.9058 19.6758 19.9006C19.6707 19.8954 19.6646 19.8913 19.6578 19.8885C19.6511 19.8857 19.6439 19.8843 19.6366 19.8843L18.404 19.8821C18.3967 19.8821 18.3894 19.8835 18.3827 19.8863C18.376 19.8891 18.3698 19.8932 18.3647 19.8983C18.3595 19.9035 18.3554 19.9096 18.3526 19.9163C18.3498 19.923 18.3484 19.9303 18.3484 19.9375L18.3462 21.1644C18.3462 21.1717 18.3476 21.179 18.3504 21.1857C18.3532 21.1924 18.3573 21.1986 18.3624 21.2037C18.3675 21.2089 18.3737 21.213 18.3804 21.2158C18.3871 21.2186 18.3943 21.22 18.4016 21.22L19.6343 21.2222C19.6416 21.2222 19.6488 21.2208 19.6555 21.218C19.6623 21.2152 19.6684 21.2112 19.6736 21.206C19.6787 21.2009 19.6828 21.1948 19.6856 21.188C19.6884 21.1813 19.6899 21.1741 19.6899 21.1668L19.692 19.9399Z" fill="#C90526"/>
</g>
<defs>
<clipPath id="clip0_22_214">
<rect width="49" height="49" fill="white"/>
</clipPath>
</defs>
</svg>
