<svg width="49" height="49" viewBox="0 0 49 49" fill="none" xmlns="http://www.w3.org/2000/svg">
<path d="M49 6.53842V35.2723C48.867 36.8045 47.6133 38.1616 46.0811 38.1616C40.1079 38.1616 34.1411 38.1616 28.1807 38.1616C28.1726 38.1617 28.1647 38.164 28.1577 38.1681C28.1506 38.1722 28.1448 38.1781 28.1408 38.1851C28.1367 38.1922 28.1346 38.2001 28.1345 38.2083C28.1345 38.2164 28.1366 38.2244 28.1405 38.2315L30.9073 43.0233C30.9146 43.0361 30.9251 43.0467 30.9379 43.0541C30.9507 43.0615 30.9652 43.0654 30.9801 43.0654C31.6959 43.0683 33.053 42.9247 33.6463 43.1946C34.4828 43.5765 34.5192 44.8254 33.6636 45.2369C33.4888 45.3212 33.1793 45.3633 32.7353 45.3633C27.1953 45.3639 21.6554 45.3636 16.1154 45.3623C15.755 45.3623 15.4867 45.3186 15.3106 45.2312C14.389 44.7737 14.5555 43.3525 15.5939 43.1123C16.2016 42.9716 17.0553 43.0769 18.0199 43.0587C18.0557 43.0581 18.0821 43.0425 18.0994 43.0118L20.8623 38.2305C20.8664 38.2237 20.8685 38.216 20.8686 38.2081C20.8687 38.2001 20.8667 38.1924 20.8628 38.1855C20.859 38.1786 20.8533 38.1728 20.8465 38.1688C20.8397 38.1648 20.832 38.1626 20.824 38.1626C15.0372 38.16 9.24365 38.1603 3.4434 38.1635C1.55805 38.1654 0.265098 37.2591 0 35.2867V6.50109C0.200977 5.04322 0.952246 4.12957 2.25381 3.76016C2.54857 3.67721 2.94861 3.63574 3.45393 3.63574C17.6626 3.63702 31.8717 3.63734 46.0811 3.6367C47.62 3.6367 48.8756 4.99473 49 6.53842ZM46.7031 6.70111C46.7031 6.49729 46.6222 6.30183 46.478 6.1577C46.3339 6.01358 46.1384 5.93262 45.9346 5.93262H3.06537C2.86155 5.93262 2.66608 6.01358 2.52196 6.1577C2.37784 6.30183 2.29688 6.49729 2.29688 6.70111V35.0962C2.29688 35.3 2.37784 35.4955 2.52196 35.6396C2.66608 35.7838 2.86155 35.8647 3.06537 35.8647H45.9346C46.1384 35.8647 46.3339 35.7838 46.478 35.6396C46.6222 35.4955 46.7031 35.3 46.7031 35.0962V6.70111ZM28.1549 43.0721C28.1689 43.0913 28.197 43.0887 28.2391 43.0645C28.2431 43.0622 28.2466 43.0591 28.2494 43.0555C28.2523 43.0518 28.2543 43.0476 28.2555 43.0432C28.2566 43.0387 28.2569 43.0341 28.2562 43.0295C28.2555 43.0249 28.254 43.0206 28.2516 43.0166L25.4723 38.2037C25.4564 38.1756 25.4321 38.1616 25.3996 38.1616H23.5946C23.5672 38.1616 23.5465 38.1734 23.5324 38.197L20.7504 43.0176C20.7318 43.0488 20.7408 43.0648 20.7771 43.0654C23.2431 43.0667 25.7024 43.0689 28.1549 43.0721Z" fill="#C90526"/>
<path d="M19.6191 20.6136L19.6201 12.0271C19.6201 11.8237 19.6736 11.6239 19.7753 11.4477C19.877 11.2716 20.0232 11.1253 20.1994 11.0236C20.3755 10.9218 20.5753 10.8682 20.7787 10.8682C20.982 10.8681 21.1819 10.9215 21.3581 11.0232L28.7952 15.3164C28.9712 15.4182 29.1174 15.5644 29.2191 15.7406C29.3207 15.9167 29.3742 16.1165 29.3742 16.3198C29.3742 16.5232 29.3207 16.723 29.2191 16.8991C29.1174 17.0753 28.9712 17.2215 28.7952 17.3233L21.3581 21.6175C21.1819 21.7193 20.9819 21.773 20.7784 21.773C20.5749 21.7731 20.3749 21.7195 20.1986 21.6178C20.0224 21.516 19.876 21.3696 19.7743 21.1934C19.6726 21.0171 19.6191 20.8171 19.6191 20.6136ZM21.984 14.0359C21.9772 14.0319 21.9694 14.0297 21.9615 14.0296C21.9536 14.0295 21.9458 14.0315 21.9389 14.0354C21.932 14.0393 21.9263 14.0449 21.9223 14.0517C21.9182 14.0585 21.9161 14.0663 21.916 14.0742V18.5665C21.9161 18.5744 21.9182 18.5821 21.9223 18.589C21.9263 18.5958 21.932 18.6014 21.9389 18.6053C21.9458 18.6092 21.9536 18.6112 21.9615 18.6111C21.9694 18.611 21.9772 18.6088 21.984 18.6048L25.8686 16.3596C25.8755 16.3557 25.8813 16.35 25.8854 16.3431C25.8894 16.3362 25.8915 16.3283 25.8915 16.3203C25.8915 16.3123 25.8894 16.3045 25.8854 16.2976C25.8813 16.2907 25.8755 16.285 25.8686 16.2811L21.984 14.0359Z" fill="#C90526"/>
<path d="M14.1555 26.4647C15.2934 23.6644 19.0861 23.7295 20.2518 26.4637C20.2578 26.4774 20.2676 26.4891 20.28 26.4972C20.2924 26.5054 20.3069 26.5097 20.3217 26.5096C26.0077 26.509 31.6896 26.509 37.3674 26.5096C37.8325 26.5096 38.1493 26.546 38.3177 26.6187C39.2058 27.0006 39.2077 28.2696 38.3588 28.6735C38.1732 28.7622 37.8867 28.8065 37.4994 28.8065C31.7777 28.8065 26.0559 28.8065 20.3341 28.8065C20.319 28.8065 20.3043 28.8108 20.2917 28.819C20.2791 28.8272 20.2693 28.8388 20.2633 28.8525C19.0239 31.6298 15.3939 31.6211 14.144 28.8563C14.1306 28.8263 14.1077 28.8113 14.0751 28.8113C13.1136 28.803 12.1547 28.7998 11.1983 28.8017C9.63163 28.8056 9.5321 26.5154 11.3763 26.5116C12.2804 26.5096 13.1841 26.509 14.0876 26.5096C14.1201 26.5096 14.1428 26.4946 14.1555 26.4647ZM18.1779 27.6581C18.1779 27.3994 18.0752 27.1514 17.8923 26.9685C17.7094 26.7856 17.4614 26.6829 17.2027 26.6829C16.9441 26.6829 16.696 26.7856 16.5131 26.9685C16.3302 27.1514 16.2275 27.3994 16.2275 27.6581C16.2275 27.9167 16.3302 28.1648 16.5131 28.3477C16.696 28.5305 16.9441 28.6333 17.2027 28.6333C17.4614 28.6333 17.7094 28.5305 17.8923 28.3477C18.0752 28.1648 18.1779 27.9167 18.1779 27.6581Z" fill="#C90526"/>
</svg>
