<svg width="47" height="49" viewBox="0 0 47 49" fill="none" xmlns="http://www.w3.org/2000/svg">
<path d="M23.1669 0H23.7938C27.4286 0.320605 29.8776 3.13332 29.6604 6.74037C29.5538 8.49557 29.4432 10.2501 29.3283 12.004C29.2071 13.8409 28.4801 15.3192 27.1472 16.4389C27.1223 16.4593 27.1099 16.4858 27.1099 16.5184L27.1185 17.5558C27.1185 17.5733 27.1241 17.5903 27.1344 17.6044C27.1447 17.6185 27.1593 17.629 27.1759 17.6343C27.775 17.8209 28.0191 18.5836 28.6057 18.7358C28.9599 18.8277 29.3312 18.9208 29.7197 19.0153C29.7861 19.0312 29.8362 19.0098 29.87 18.9511C30.7237 17.4429 31.9056 17.2658 33.5297 16.8447C33.5635 16.8358 33.5877 16.8154 33.6024 16.7835C33.8819 16.1614 34.3451 15.9792 34.992 16.237C34.9994 16.2399 35.0074 16.2414 35.0153 16.2412C35.0233 16.2411 35.0311 16.2394 35.0384 16.2361C35.0456 16.2329 35.0521 16.2283 35.0575 16.2225C35.0628 16.2167 35.0669 16.2099 35.0695 16.2025C35.1774 15.9008 35.2093 15.5891 35.1652 15.2675C35.1615 15.2397 35.148 15.214 35.127 15.1948C34.145 14.3303 33.6075 13.1994 33.5144 11.8021C33.4008 10.1011 33.2968 8.39986 33.2024 6.69826C33.1201 5.22061 34.0264 3.87885 35.416 3.4568C35.7548 3.35344 36.365 3.30144 37.2468 3.3008C38.3397 3.29984 39.8155 3.18117 40.7208 3.45871C42.2023 3.9133 43.0091 5.34023 42.9153 6.8734C42.8158 8.50801 42.7114 10.1429 42.6023 11.7782C42.5085 13.1888 41.9729 14.3271 40.9955 15.1929C40.9731 15.2126 40.9597 15.2372 40.9553 15.2666C40.9049 15.5875 40.9352 15.8979 41.0462 16.1978C41.0602 16.236 41.0861 16.2478 41.1237 16.2332C41.7751 15.985 42.238 16.1687 42.5124 16.7844C42.5258 16.8138 42.5484 16.8326 42.5803 16.8409C43.3459 17.0256 44.2389 17.195 44.8762 17.5634C45.7739 18.0828 46.3427 18.8357 46.5826 19.822C46.6675 20.171 46.7096 20.8052 46.709 21.7246C46.7077 23.393 46.707 25.0615 46.707 26.7299C46.707 27.5816 46.3386 27.7989 45.5069 27.7998C41.9659 27.8037 38.422 27.8037 34.8753 27.7998C34.8427 27.7998 34.8261 27.8161 34.8255 27.8487C34.8108 29.1732 34.8041 30.4974 34.8054 31.8213C34.8064 32.6654 34.6896 33.1123 33.745 33.1133C33.2671 33.1139 32.787 33.1139 32.3047 33.1133C32.2895 33.1133 32.2745 33.1172 32.2613 33.1245C32.248 33.1319 32.2369 33.1425 32.2291 33.1554L31.9822 33.5736C31.975 33.5855 31.9708 33.599 31.9698 33.6129C31.9688 33.6269 31.9711 33.6409 31.9764 33.654L32.3535 34.5632C32.3588 34.5759 32.367 34.5871 32.3775 34.596C32.388 34.6048 32.4005 34.6109 32.4138 34.6139C33.0327 34.7638 33.6503 34.9182 34.2666 35.0771C34.6456 35.1738 34.792 35.5508 34.8006 35.9394C34.8268 37.0744 34.8271 38.2095 34.8016 39.3445C34.7901 39.8527 34.7068 40.1838 34.1996 40.3216C33.6113 40.4818 33.0173 40.6333 32.4176 40.7762C32.4019 40.7801 32.3873 40.7874 32.3752 40.7977C32.3631 40.8081 32.3536 40.821 32.3477 40.8356L31.9716 41.738C31.9668 41.7496 31.9649 41.7623 31.9659 41.7749C31.9669 41.7875 31.9708 41.7998 31.9774 41.8108C32.2849 42.3186 32.5931 42.8259 32.9019 43.3325C33.1966 43.8148 33.0234 44.1507 32.6425 44.5335C31.8705 45.3081 31.0972 46.0814 30.3227 46.8534C29.9839 47.1912 29.6317 47.3826 29.202 47.1233C28.6743 46.8036 28.1429 46.4856 27.6076 46.1691C27.5981 46.1635 27.5874 46.1601 27.5764 46.1593C27.5655 46.1585 27.5545 46.1602 27.5444 46.1643L26.6371 46.5443C26.6256 46.549 26.6153 46.5564 26.6072 46.5659C26.599 46.5754 26.5932 46.5867 26.5902 46.5988C26.4333 47.1979 26.2805 47.7992 26.1318 48.4028C26.0514 48.7276 25.8259 48.9266 25.4552 49H21.5333C21.1651 48.9196 20.9447 48.7279 20.872 48.4248C20.7246 47.811 20.5696 47.1992 20.4069 46.5892C20.4039 46.5779 20.3983 46.5675 20.3907 46.5587C20.3831 46.5499 20.3735 46.543 20.3628 46.5385L19.4584 46.1643C19.431 46.1535 19.4045 46.1557 19.379 46.171C18.8743 46.4849 18.3668 46.788 17.8564 47.0802C17.5473 47.2572 17.1424 47.3156 16.8926 47.0668C15.9688 46.1474 15.0475 45.2264 14.1287 44.3038C13.8952 44.0694 13.9239 43.6789 14.0914 43.3822C14.3836 42.8642 14.6924 42.3464 15.0178 41.829C15.0264 41.8153 15.0317 41.7998 15.0332 41.7839C15.0347 41.7679 15.0324 41.7519 15.0264 41.7371L14.6561 40.8384C14.6501 40.8239 14.6409 40.8109 14.6291 40.8006C14.6173 40.7903 14.6032 40.7829 14.5881 40.7791C14.0854 40.6509 13.5826 40.5245 13.0798 40.4001C12.2329 40.1905 12.1974 39.9139 12.1898 39.1301C12.1802 38.1457 12.1793 37.1609 12.1869 36.1758C12.1907 35.7451 12.2309 35.2053 12.7343 35.0771C13.3513 34.9208 13.9686 34.7654 14.5862 34.611C14.6007 34.6074 14.6142 34.6006 14.6255 34.5909C14.6368 34.5813 14.6456 34.5691 14.6513 34.5555L15.0236 33.6617C15.0292 33.6483 15.0317 33.6338 15.0309 33.6194C15.03 33.6049 15.0259 33.5909 15.0188 33.5784L14.769 33.1544C14.7618 33.1419 14.7513 33.1315 14.7387 33.1243C14.7261 33.1171 14.7118 33.1133 14.6972 33.1133C14.2257 33.1133 13.7565 33.1133 13.2894 33.1133C12.6061 33.1133 12.207 32.8903 12.1974 32.1783C12.1777 30.7376 12.1754 29.2966 12.1907 27.8554C12.1914 27.8228 12.1754 27.8065 12.1429 27.8065C6.73376 27.7957 3.11873 27.7947 1.29782 27.8037C0.447018 27.8085 0.290065 27.3252 0.291022 26.5567C0.292936 24.871 0.292936 23.1857 0.291022 21.5007C0.290384 20.6961 0.33696 20.1162 0.430749 19.7608C0.691699 18.7718 1.279 18.026 2.19264 17.5232C2.80993 17.1845 3.65594 17.0294 4.39094 16.8562C4.44645 16.8434 4.48154 16.815 4.49622 16.771C4.68284 16.2179 5.25706 16.0025 5.7327 16.1987C5.88072 16.2606 5.97228 16.2131 6.00737 16.0561C6.06607 15.7945 6.0801 15.5288 6.04948 15.2589C6.04644 15.2306 6.03278 15.2043 6.0112 15.1852C4.76993 14.1009 4.47899 12.9754 4.36415 11.2748C4.31502 10.5551 4.26813 9.83477 4.22346 9.11381C4.16923 8.23462 4.17721 7.59851 4.24739 7.20549C4.63977 4.99283 6.617 3.34865 8.8354 3.31229C11.2079 3.27305 13.3028 4.96508 13.6579 7.35096C13.7976 8.29076 13.6273 9.63731 13.5545 10.7264C13.4856 11.7543 13.4419 12.3224 13.4234 12.4309C13.2428 13.5149 12.7235 14.4365 11.8654 15.1957C11.8418 15.2168 11.8293 15.243 11.828 15.2742C11.8127 15.5508 11.7869 15.9556 11.9477 16.1978C11.9668 16.2265 11.9926 16.2348 12.0252 16.2226C12.6702 15.9859 13.1264 16.1722 13.3937 16.7815C13.4078 16.8141 13.4323 16.8345 13.4674 16.8428C15.1394 17.24 16.3108 17.4878 17.1453 18.9923C17.1526 19.0053 17.1637 19.0156 17.1771 19.0218C17.1906 19.028 17.2056 19.0298 17.2199 19.0267C17.6194 18.9374 18.0127 18.8392 18.4 18.732C18.978 18.5721 19.2307 17.8486 19.8307 17.6285C19.8626 17.6164 19.8789 17.5934 19.8795 17.5596L19.8939 16.5308C19.8945 16.4957 19.8821 16.466 19.8566 16.4418C18.4622 15.1297 17.6851 13.7975 17.665 11.826C17.6631 11.6072 17.6988 11.4378 17.7722 11.3179C17.9999 10.9437 18.6038 10.8996 18.8852 11.2193C19.1838 11.5571 19.0986 12.2356 19.1847 12.6845C20.0461 17.1902 26.3117 17.5175 27.6822 13.1726C27.792 12.8249 27.8679 12.3317 27.91 11.693C27.9891 10.4961 28.0647 9.29979 28.1368 8.10414C28.1489 7.89806 28.1244 7.71495 28.0631 7.5548C27.4047 5.84459 25.3681 5.31344 23.8866 6.33268C23.478 6.61404 23.1459 6.34607 22.7994 6.15275C21.3562 5.3498 19.5417 6.01303 18.9416 7.52896C18.8067 7.86871 18.9436 8.23908 18.8038 8.52619C18.4612 9.22769 17.5004 9.06691 17.4324 8.24961C17.2707 6.30779 17.1635 4.76219 18.1531 3.0893C19.2447 1.24414 20.916 0.214375 23.1669 0ZM18.8967 5.26176C20.2499 4.24635 21.8998 4.09322 23.434 4.85789C23.4659 4.87384 23.4978 4.87416 23.5297 4.85885C25.1534 4.09386 26.6824 4.22944 28.1167 5.26559C28.1215 5.26878 28.1271 5.27053 28.1329 5.27059C28.1386 5.27065 28.1443 5.26902 28.149 5.26592C28.1538 5.26282 28.1574 5.25839 28.1595 5.25321C28.1616 5.24803 28.162 5.24234 28.1607 5.23688C27.0458 0.214375 19.9647 0.20002 18.8402 5.22539C18.8384 5.23259 18.8388 5.24018 18.8416 5.24709C18.8443 5.254 18.8491 5.25988 18.8553 5.2639C18.8616 5.26792 18.8689 5.26988 18.8764 5.26949C18.8838 5.26911 18.8909 5.2664 18.8967 5.26176ZM12.2309 7.49451C11.5658 3.90564 6.60073 3.831 5.67624 7.34617C5.67401 7.35451 5.67446 7.36333 5.67752 7.37139C5.68057 7.37946 5.68609 7.38636 5.69328 7.39112C5.70048 7.39588 5.70898 7.39826 5.7176 7.39792C5.72622 7.39758 5.73452 7.39455 5.74132 7.38924C6.11264 7.09001 6.53725 6.93784 7.01512 6.93273C8.15782 6.91997 9.30051 6.91487 10.4432 6.91742C11.1801 6.91934 11.6644 7.04949 12.1659 7.52896C12.1719 7.53454 12.1796 7.53812 12.1878 7.5392C12.196 7.54028 12.2042 7.53881 12.2115 7.53499C12.2187 7.53117 12.2244 7.5252 12.2279 7.51793C12.2314 7.51067 12.2325 7.50247 12.2309 7.49451ZM35.7538 4.85598C34.9939 5.15361 34.5499 5.90393 34.6216 6.71549C34.6685 7.24281 34.6877 7.77301 34.7279 8.29555C34.7284 8.30338 34.7311 8.31092 34.7356 8.31734C34.7402 8.32377 34.7464 8.32883 34.7535 8.33198C34.7607 8.33514 34.7687 8.33626 34.7765 8.33524C34.7842 8.33422 34.7916 8.33108 34.7977 8.32617C35.2916 7.93953 35.7564 7.51844 36.1921 7.06289C36.2697 6.98154 36.4812 6.91647 36.5912 6.91551C37.5495 6.91359 38.5075 6.91359 39.4652 6.91551C39.6451 6.91551 39.8576 6.97963 39.9686 7.0983C40.3878 7.54428 40.8392 7.95325 41.3228 8.32521C41.3293 8.33014 41.3371 8.33323 41.3452 8.33415C41.3534 8.33507 41.3616 8.33378 41.369 8.33043C41.3764 8.32708 41.3827 8.32179 41.3872 8.31514C41.3917 8.30848 41.3942 8.30071 41.3946 8.29268C41.4491 6.9691 41.8759 5.42445 40.3332 4.85789C40.1067 4.77431 39.789 4.73316 39.38 4.73443C38.481 4.73635 37.5824 4.73826 36.6841 4.74018C36.2598 4.74081 35.9497 4.77941 35.7538 4.85598ZM38.6402 14.7718C39.9112 14.5335 40.9869 13.4329 41.1333 12.1294C41.1831 11.6841 41.2293 10.9826 41.2721 10.0249C41.274 9.99109 41.2603 9.96589 41.2309 9.9493C40.4838 9.53076 39.8161 9.01045 39.2278 8.38838C39.201 8.36031 39.1682 8.34627 39.1293 8.34627L36.9673 8.35201C36.9534 8.35203 36.9396 8.35483 36.9268 8.36026C36.914 8.36568 36.9024 8.37362 36.8927 8.38359C36.3012 9.00694 35.6323 9.53171 34.8858 9.95791C34.8526 9.97641 34.837 10.0048 34.8389 10.0431C34.8906 10.9111 34.8647 12.0174 35.1509 12.784C35.6907 14.2253 37.1425 15.0522 38.6402 14.7718ZM12.119 10.1598C11.9065 9.79713 11.2251 8.35297 10.7897 8.35201C9.59081 8.34946 8.39293 8.34914 7.196 8.35106C6.81798 8.35201 6.60264 8.45059 6.43612 8.77502C6.19399 9.24492 5.71069 9.99811 5.74132 10.424C5.79491 11.1705 5.79299 12.0835 6.00258 12.7151C6.92038 15.479 10.827 15.5202 11.8424 12.7993C12.1084 12.0863 12.1037 11.0776 12.1419 10.2508C12.1432 10.2182 12.1356 10.1879 12.119 10.1598ZM10.3532 16.036C9.39717 16.3317 8.49278 16.3317 7.53575 16.0379C7.49874 16.0264 7.47737 16.0398 7.47163 16.0781C7.41803 16.415 7.29968 16.7264 7.11657 17.0122C7.09807 17.0409 7.10317 17.0648 7.13188 17.084L8.90143 18.2602C8.91335 18.2681 8.92733 18.2723 8.94163 18.2723C8.95593 18.2723 8.96991 18.2681 8.98182 18.2602L10.738 17.0907C10.7522 17.0811 10.7622 17.0664 10.7658 17.0496C10.7694 17.0328 10.7662 17.0152 10.7571 17.0007C10.5766 16.7161 10.463 16.4077 10.4164 16.0753C10.4113 16.0376 10.3903 16.0245 10.3532 16.036ZM36.5788 16.0925C36.5354 16.423 36.4196 16.727 36.2314 17.0045C36.2271 17.0109 36.2241 17.0181 36.2225 17.0257C36.221 17.0332 36.221 17.041 36.2225 17.0486C36.2241 17.0562 36.2271 17.0634 36.2314 17.0697C36.2357 17.0761 36.2412 17.0816 36.2476 17.0859L38.0182 18.2611C38.0301 18.269 38.0442 18.2733 38.0587 18.2733C38.0731 18.2733 38.0873 18.269 38.0995 18.2611L39.8547 17.0907C39.8688 17.0812 39.8787 17.0665 39.8823 17.0498C39.8858 17.033 39.8828 17.0154 39.8738 17.0007C39.6958 16.7174 39.581 16.4102 39.5293 16.0791C39.5229 16.0382 39.5 16.0242 39.4604 16.037C38.527 16.3356 37.5939 16.3365 36.6611 16.0398C36.6126 16.0239 36.5852 16.0414 36.5788 16.0925ZM25.6064 17.3108C24.2522 17.8209 22.6722 17.8572 21.4127 17.3213C21.4058 17.3183 21.3983 17.317 21.3908 17.3174C21.3833 17.3178 21.3759 17.3199 21.3693 17.3236C21.3627 17.3273 21.3569 17.3324 21.3525 17.3387C21.3481 17.3449 21.3451 17.3521 21.3438 17.3596L21.2203 18.0908C21.2181 18.1027 21.2199 18.115 21.2254 18.1259C21.231 18.1368 21.2399 18.1456 21.251 18.1511L23.4607 19.2516C23.4735 19.2579 23.4875 19.2611 23.5016 19.2611C23.5157 19.2611 23.5296 19.2579 23.5421 19.2516L25.7203 18.1683C25.7365 18.1602 25.7497 18.1473 25.7581 18.1313C25.7665 18.1154 25.7697 18.0972 25.7672 18.0793L25.6581 17.3414C25.6573 17.3358 25.6553 17.3304 25.6521 17.3257C25.649 17.3209 25.6448 17.3169 25.6398 17.314C25.6349 17.3111 25.6293 17.3093 25.6235 17.3087C25.6178 17.3081 25.6119 17.3089 25.6064 17.3108ZM6.84573 20.9906C6.44186 21.2518 5.80639 21.2499 5.6504 20.7867C5.36839 19.9528 5.08798 19.1148 4.80917 18.2726C4.79768 18.2394 4.77503 18.227 4.74122 18.2353C3.54589 18.5348 2.2893 18.6659 1.85481 19.9943C1.77059 20.2514 1.72816 20.7082 1.72753 21.3648C1.72561 23.0134 1.72593 24.6637 1.72848 26.3155C1.72912 26.3493 1.74635 26.3662 1.78016 26.3662H2.87214C2.89244 26.3662 2.91191 26.3581 2.92627 26.3438C2.94063 26.3294 2.9487 26.31 2.9487 26.2896C2.94615 25.369 2.94646 24.4429 2.94965 23.5114C2.95348 22.4041 4.38329 22.4883 4.38233 23.4961C4.38105 24.4359 4.38169 25.3766 4.38424 26.3184C4.38488 26.3503 4.40115 26.3662 4.43305 26.3662H6.8352C6.87476 26.3662 6.89454 26.3464 6.89454 26.3069L6.89741 21.0183C6.89741 20.9775 6.88018 20.9682 6.84573 20.9906ZM12.2922 20.6279C12.0769 21.2719 11.5505 21.2671 11.0356 21.0011C11.0031 20.9839 10.9868 20.9938 10.9868 21.0308V26.3184C10.9868 26.3503 11.0028 26.3662 11.0347 26.3662H12.1324C12.17 26.3662 12.1885 26.3474 12.1879 26.3097C12.1821 25.6118 12.1831 24.9131 12.1907 24.2138C12.2147 21.8481 13.3258 20.1235 15.6648 19.4143C15.6724 19.4119 15.6793 19.4077 15.6849 19.402C15.6905 19.3962 15.6946 19.3893 15.6968 19.3816C15.699 19.374 15.6992 19.366 15.6975 19.3583C15.6957 19.3507 15.692 19.3436 15.6868 19.3378C15.0073 18.5626 14.0742 18.4707 13.143 18.2429C13.1277 18.239 13.1114 18.2411 13.0975 18.2487C13.0836 18.2564 13.0732 18.269 13.0683 18.2841C12.8119 19.0657 12.5531 19.8469 12.2922 20.6279ZM31.3304 19.421C33.0119 19.8641 34.2896 21.1446 34.681 22.8434C34.9059 23.8167 34.7853 25.1967 34.8131 26.3117C34.8143 26.348 34.8328 26.3662 34.8686 26.3662H35.9529C35.9931 26.3662 36.0132 26.3464 36.0132 26.3069L36.0141 21.0489C36.0141 21.0036 35.9934 20.9899 35.9519 21.0078C35.415 21.2365 34.9518 21.3016 34.7212 20.6279C34.4507 19.8399 34.1843 19.0516 33.9221 18.263C33.9181 18.2509 33.9097 18.2407 33.8985 18.2345C33.8873 18.2282 33.8742 18.2265 33.8618 18.2295C32.9421 18.4745 31.9755 18.5645 31.3065 19.3435C31.3012 19.3497 31.2975 19.357 31.2959 19.365C31.2942 19.3729 31.2946 19.3812 31.297 19.3889C31.2994 19.3967 31.3037 19.4037 31.3095 19.4093C31.3154 19.4149 31.3226 19.419 31.3304 19.421ZM38.6881 25.9221C38.9484 25.0005 40.2442 25.3116 40.0806 26.3107C40.0795 26.3175 40.0799 26.3245 40.0818 26.3311C40.0836 26.3377 40.087 26.3439 40.0915 26.3492C40.0961 26.3545 40.1017 26.3587 40.1081 26.3616C40.1144 26.3646 40.1214 26.3661 40.1284 26.3662H42.5679C42.6004 26.3662 42.6167 26.3499 42.6167 26.3174C42.6167 25.3553 42.6176 24.3922 42.6196 23.4281C42.6215 22.5122 44.0608 22.3744 44.0541 23.5966C44.049 24.5013 44.0494 25.4089 44.0551 26.3193C44.0551 26.3318 44.06 26.3437 44.0688 26.3525C44.0776 26.3613 44.0896 26.3662 44.102 26.3662H45.1988C45.2183 26.3662 45.237 26.3584 45.2509 26.3446C45.2647 26.3308 45.2724 26.3121 45.2724 26.2925C45.2731 24.6196 45.2731 22.942 45.2724 21.2595C45.2718 20.6674 45.2249 20.2367 45.1318 19.9675C44.6733 18.6401 43.4493 18.5492 42.2655 18.2439C42.2483 18.2395 42.2302 18.2418 42.2147 18.2501C42.1993 18.2584 42.1877 18.2723 42.1822 18.2889C41.9449 19.0188 41.7021 19.7496 41.4539 20.4814C41.2108 21.2011 40.8328 21.3322 40.1523 21.0021C40.1153 20.9835 40.0971 20.995 40.0978 21.0365C40.1054 21.5476 40.2098 22.5486 40.0327 23.0013C39.7207 23.7937 38.5943 23.4683 38.6708 22.5773C38.6715 22.5693 38.6705 22.5613 38.6679 22.5537C38.6654 22.5462 38.6612 22.5392 38.6559 22.5333C38.6505 22.5273 38.6439 22.5226 38.6366 22.5193C38.6293 22.516 38.6214 22.5143 38.6134 22.5142H37.4994C37.486 22.5142 37.4731 22.5195 37.4636 22.529C37.4541 22.5385 37.4487 22.5514 37.4487 22.5649V26.2944C37.4487 26.3423 37.4726 26.3662 37.5205 26.3662H38.5991C38.6152 26.3661 38.6307 26.3602 38.6427 26.3497C38.6546 26.3391 38.6623 26.3245 38.6642 26.3088C38.6814 26.1758 38.6565 26.0351 38.6881 25.9221ZM7.46684 19.0909C7.47181 19.0883 7.47604 19.0845 7.47911 19.0798C7.48218 19.0751 7.484 19.0698 7.48438 19.0642C7.48477 19.0586 7.48371 19.053 7.48131 19.048C7.4789 19.0429 7.47524 19.0386 7.47067 19.0354L6.39688 18.3137C6.39125 18.3097 6.38446 18.3075 6.3775 18.3075C6.37054 18.3076 6.36378 18.3099 6.35821 18.314C6.35264 18.3182 6.34856 18.3241 6.34656 18.3307C6.34456 18.3374 6.34476 18.3445 6.34712 18.3511L6.70696 19.4325C6.70851 19.4368 6.71095 19.4408 6.71413 19.4441C6.7173 19.4474 6.72114 19.45 6.72538 19.4517C6.72963 19.4534 6.73419 19.4542 6.73877 19.454C6.74334 19.4539 6.74783 19.4527 6.75194 19.4507L7.46684 19.0909ZM10.4279 19.0947L11.0854 19.421C11.0953 19.4259 11.1061 19.4286 11.1171 19.429C11.1282 19.4293 11.1391 19.4274 11.1493 19.4232C11.1594 19.419 11.1685 19.4127 11.176 19.4048C11.1835 19.3968 11.1891 19.3874 11.1926 19.377L11.5352 18.3511C11.5376 18.3442 11.5377 18.3367 11.5355 18.3297C11.5334 18.3227 11.5291 18.3166 11.5232 18.3122C11.5173 18.3079 11.5102 18.3055 11.5029 18.3054C11.4956 18.3053 11.4885 18.3076 11.4825 18.3118C11.1412 18.5505 10.7976 18.7856 10.4518 19.0172C10.432 19.0306 10.4196 19.0459 10.4145 19.0631C10.4126 19.0692 10.413 19.0758 10.4154 19.0816C10.4179 19.0874 10.4223 19.092 10.4279 19.0947ZM36.5845 19.0928C36.5895 19.0903 36.5938 19.0866 36.5969 19.0821C36.5999 19.0775 36.6018 19.0721 36.6022 19.0666C36.6026 19.0611 36.6015 19.0555 36.5991 19.0506C36.5966 19.0456 36.5929 19.0413 36.5883 19.0382L35.5117 18.3137C35.5062 18.3099 35.4997 18.308 35.493 18.3081C35.4863 18.3082 35.4798 18.3105 35.4745 18.3145C35.4692 18.3186 35.4653 18.3242 35.4634 18.3306C35.4615 18.337 35.4616 18.3438 35.4638 18.3501L35.8237 19.422C35.825 19.4264 35.8273 19.4304 35.8303 19.4338C35.8334 19.4372 35.8371 19.4399 35.8413 19.4417C35.8455 19.4435 35.85 19.4444 35.8546 19.4443C35.8591 19.4442 35.8636 19.4431 35.8677 19.4411L36.5845 19.0928ZM40.249 19.4402C40.2532 19.4422 40.2577 19.4433 40.2623 19.4434C40.267 19.4435 40.2716 19.4426 40.2758 19.4408C40.2801 19.439 40.2839 19.4363 40.287 19.4329C40.2902 19.4295 40.2925 19.4254 40.294 19.421L40.6509 18.353C40.653 18.3466 40.6531 18.3397 40.6511 18.3332C40.6491 18.3268 40.6452 18.3211 40.6398 18.317C40.6344 18.3129 40.6279 18.3106 40.6212 18.3103C40.6144 18.3101 40.6078 18.312 40.6021 18.3157L39.5274 19.0392C39.5226 19.0424 39.5187 19.0467 39.5162 19.0519C39.5136 19.057 39.5125 19.0628 39.5129 19.0685C39.5133 19.0743 39.5152 19.0798 39.5184 19.0846C39.5216 19.0893 39.526 19.0931 39.5312 19.0956L40.249 19.4402ZM22.4109 20.4154C22.4156 20.4082 22.4186 20.4002 22.42 20.3917C22.4213 20.3833 22.4208 20.3747 22.4185 20.3665C22.4163 20.3582 22.4123 20.3506 22.4068 20.344C22.4014 20.3374 22.3946 20.3321 22.387 20.3283L20.1504 19.2124C20.1383 19.2066 20.1246 19.2051 20.1115 19.2079C20.0984 19.2108 20.0866 19.218 20.078 19.2283C20.0695 19.2387 20.0646 19.2515 20.0642 19.2649C20.0638 19.2784 20.0678 19.2915 20.0757 19.3024L21.6539 21.4097C21.6597 21.4175 21.6672 21.4237 21.6759 21.4279C21.6847 21.4321 21.6942 21.4342 21.7039 21.4339C21.7136 21.4336 21.723 21.431 21.7315 21.4263C21.7399 21.4216 21.7471 21.4149 21.7524 21.4069L22.4109 20.4154ZM25.3327 21.427L26.9329 19.2938C26.9375 19.2875 26.9406 19.2803 26.942 19.2726C26.9433 19.265 26.9429 19.2571 26.9406 19.2497C26.9384 19.2422 26.9345 19.2354 26.9291 19.2298C26.9238 19.2241 26.9172 19.2198 26.9099 19.2172C26.8831 19.207 26.8573 19.2079 26.8324 19.2201C26.0872 19.585 25.3474 19.9544 24.613 20.3283C24.6054 20.3321 24.5986 20.3375 24.5933 20.3441C24.5879 20.3508 24.584 20.3585 24.5818 20.3668C24.5796 20.3752 24.5792 20.3839 24.5807 20.3924C24.5821 20.4009 24.5853 20.4091 24.59 20.4163L25.26 21.4251C25.2638 21.431 25.269 21.4359 25.2752 21.4393C25.2814 21.4428 25.2883 21.4447 25.2954 21.4449C25.3026 21.4451 25.3097 21.4435 25.3162 21.4404C25.3226 21.4373 25.3283 21.4327 25.3327 21.427ZM9.45173 20.2039C9.28329 20.1359 9.13016 20.045 8.95981 19.9771C8.94843 19.9726 8.9362 19.9706 8.92398 19.9713C8.91176 19.9719 8.89983 19.9752 8.88899 19.9809L8.38081 20.2403C8.36587 20.2477 8.3533 20.2592 8.34451 20.2734C8.33572 20.2876 8.33106 20.3039 8.33104 20.3206V21.0308C8.33104 21.0627 8.34699 21.0786 8.37889 21.0786H9.48044C9.51361 21.0786 9.53212 21.062 9.53594 21.0288C9.5704 20.7322 9.57135 20.4913 9.53882 20.3063C9.53052 20.2578 9.50149 20.2237 9.45173 20.2039ZM37.5033 20.2336C37.4888 20.2408 37.4766 20.2518 37.468 20.2655C37.4594 20.2791 37.4547 20.2949 37.4545 20.3111L37.4468 20.9896C37.4467 21.0013 37.4489 21.0128 37.4532 21.0236C37.4576 21.0344 37.4641 21.0442 37.4723 21.0525C37.4804 21.0608 37.4902 21.0673 37.5009 21.0718C37.5117 21.0763 37.5232 21.0786 37.5349 21.0786H38.5799C38.6033 21.0786 38.6257 21.0693 38.6422 21.0528C38.6587 21.0363 38.668 21.0139 38.668 20.9906L38.6689 20.3197C38.6689 20.3034 38.6643 20.2874 38.6557 20.2735C38.647 20.2597 38.6347 20.2485 38.6201 20.2412L38.0918 19.9771C38.0797 19.971 38.0662 19.9678 38.0526 19.9678C38.039 19.9678 38.0256 19.971 38.0134 19.9771L37.5033 20.2336ZM21.3859 23.3401C21.3017 23.2779 21.2184 23.2204 21.1591 23.141C20.4126 22.1412 19.6607 21.1399 18.9034 20.1369C18.8829 20.1101 18.8565 20.1008 18.8239 20.1091C18.1623 20.2795 17.4997 20.4457 16.8362 20.6078C16.0642 20.796 15.5282 20.974 15.2284 21.1418C14.4557 21.5724 13.9606 22.2175 13.7431 23.0769C13.6588 23.408 13.617 24.0425 13.6177 24.9804C13.619 27.1886 13.6193 29.3978 13.6186 31.6079C13.6186 31.6264 13.626 31.6442 13.6391 31.6573C13.6522 31.6704 13.67 31.6777 13.6885 31.6777H13.8837C13.9252 31.6777 13.9466 31.657 13.9479 31.6155C13.9689 31.0174 15.1374 30.0814 15.7126 29.4919C15.735 29.4695 15.7464 29.4427 15.7471 29.4115C15.7519 29.133 15.704 28.8143 15.8256 28.5741C16.0323 28.1651 16.381 28.0659 16.8716 28.2764C16.9003 28.2886 16.9284 28.2873 16.9558 28.2726C17.2774 28.0917 17.5453 28.1204 17.8765 28.3166C18.3773 28.6127 18.8782 28.9113 19.379 29.2124C19.3917 29.2201 19.4062 29.2247 19.4212 29.2257C19.4362 29.2267 19.4512 29.2241 19.4651 29.2182L20.3226 28.8612C20.3482 28.8505 20.3709 28.834 20.3888 28.8131C20.4068 28.7921 20.4195 28.7673 20.426 28.7406C20.5415 28.2717 20.6544 27.8196 20.7648 27.3845C21.094 26.0887 21.2232 24.7239 21.4137 23.4071C21.4154 23.3944 21.4138 23.3814 21.4089 23.3697C21.404 23.3579 21.3961 23.3477 21.3859 23.3401ZM26.6534 28.8507L27.532 29.2153C27.5658 29.2293 27.598 29.2271 27.6286 29.2086C28.1288 28.9106 28.6287 28.6105 29.1283 28.308C29.4853 28.0937 29.6709 28.1262 30.0375 28.2726C30.0687 28.2847 30.0997 28.2844 30.1303 28.2717C30.6299 28.063 30.9827 28.1709 31.1888 28.5951C31.3065 28.8373 31.229 29.1607 31.2644 29.4392C31.2681 29.4696 31.2823 29.498 31.3046 29.5196C31.8303 30.039 32.3525 30.5612 32.8712 31.0863C32.9861 31.203 33.0422 31.3769 33.0397 31.6079C33.039 31.6462 33.0572 31.6675 33.0942 31.672L33.2914 31.6969C33.3392 31.7026 33.3635 31.6816 33.3641 31.6337C33.3935 27.604 33.3979 25.0369 33.3775 23.9325C33.3545 22.6686 32.832 21.7437 31.8099 21.158C31.526 20.9954 31.0883 20.84 30.4968 20.692C29.7344 20.5012 28.9688 20.3101 28.2 20.1187C28.1764 20.1128 28.1517 20.114 28.1289 20.1222C28.106 20.1304 28.0862 20.1452 28.0717 20.1646C27.3425 21.1415 26.602 22.1285 25.8505 23.1257C25.7806 23.2185 25.7146 23.2702 25.6246 23.341C25.5984 23.3608 25.5876 23.387 25.5921 23.4195C25.7748 24.7814 25.9155 26.1949 26.2696 27.5233C26.38 27.9386 26.4815 28.3495 26.574 28.7559C26.5787 28.7769 26.5884 28.7964 26.6022 28.8129C26.616 28.8294 26.6336 28.8423 26.6534 28.8507ZM22.8923 22.2893C22.8837 22.3018 22.8787 22.3165 22.8779 22.3318C22.8771 22.347 22.8805 22.3621 22.8877 22.3755C22.8949 22.389 22.9057 22.4001 22.9188 22.4079C22.9319 22.4156 22.9469 22.4196 22.9621 22.4194L24.0407 22.4175C24.0559 22.4177 24.0709 22.4137 24.0841 22.406C24.0972 22.3982 24.1079 22.387 24.1151 22.3736C24.1223 22.3602 24.1257 22.3451 24.1249 22.3298C24.1241 22.3146 24.1192 22.2999 24.1106 22.2873L23.5689 21.4806C23.5613 21.4693 23.551 21.4601 23.539 21.4537C23.527 21.4474 23.5136 21.444 23.5 21.444C23.4864 21.444 23.473 21.4474 23.461 21.4537C23.449 21.4601 23.4387 21.4693 23.4311 21.4806L22.8923 22.2893ZM9.5503 22.585C9.5503 22.5659 9.54274 22.5477 9.52928 22.5342C9.51582 22.5208 9.49756 22.5132 9.47852 22.5132H8.40282C8.38378 22.5132 8.36553 22.5208 8.35207 22.5342C8.3386 22.5477 8.33104 22.5659 8.33104 22.585V26.2944C8.33104 26.3135 8.3386 26.3317 8.35207 26.3452C8.36553 26.3586 8.38378 26.3662 8.40282 26.3662H9.47852C9.49756 26.3662 9.51582 26.3586 9.52928 26.3452C9.54274 26.3317 9.5503 26.3135 9.5503 26.2944V22.585ZM22.8502 23.854C22.8363 23.8541 22.823 23.8592 22.8126 23.8683C22.8023 23.8775 22.7955 23.8901 22.7937 23.9038L22.4473 26.326C22.446 26.3342 22.4465 26.3425 22.4488 26.3504C22.4511 26.3583 22.455 26.3657 22.4604 26.3719C22.4657 26.3782 22.4724 26.3833 22.4799 26.3867C22.4873 26.3902 22.4955 26.392 22.5037 26.392L24.4982 26.3892C24.5063 26.3891 24.5144 26.3873 24.5218 26.3839C24.5292 26.3805 24.5358 26.3755 24.5411 26.3694C24.5464 26.3632 24.5504 26.356 24.5527 26.3482C24.5551 26.3404 24.5557 26.3322 24.5546 26.3241L24.2053 23.9028C24.2033 23.8893 24.1965 23.8769 24.1861 23.868C24.1757 23.859 24.1625 23.8541 24.1489 23.854H22.8502ZM17.4582 29.7838L15.5987 31.6452C15.5871 31.6568 15.5797 31.672 15.5778 31.6883C15.5758 31.7047 15.5795 31.7212 15.5882 31.7352C15.8785 32.2149 16.1688 32.7005 16.4591 33.1918C16.5873 33.4109 16.6007 33.6837 16.483 33.9306C16.2527 34.4148 16.0434 34.9077 15.8552 35.4092C15.7557 35.6753 15.5687 35.8443 15.2944 35.9164C14.754 36.0574 14.2241 36.1876 13.7048 36.3069C13.6803 36.3125 13.6585 36.3263 13.6428 36.3459C13.6272 36.3656 13.6187 36.3899 13.6186 36.415V38.9741C13.6187 38.9981 13.6268 39.0214 13.6418 39.0402C13.6567 39.0589 13.6776 39.0721 13.7009 39.0775C14.1929 39.193 14.6787 39.3148 15.1585 39.4431C15.5155 39.5378 15.7385 39.6259 15.8763 39.9991C16.0224 40.3953 16.2211 40.8656 16.4725 41.4098C16.6945 41.8921 16.4782 42.1381 16.2543 42.5333C16.0387 42.9136 15.8163 43.2846 15.5873 43.6464C15.578 43.661 15.5741 43.6784 15.576 43.6956C15.5779 43.7128 15.5856 43.7288 15.5978 43.7411L17.4544 45.5978C17.4799 45.6233 17.508 45.6268 17.5386 45.6083C17.9856 45.3394 18.4469 45.081 18.8823 44.7967C19.2259 44.5728 19.4824 44.5833 19.8719 44.768C20.2375 44.9416 20.6113 45.0969 20.9935 45.2341C21.4098 45.3834 21.6443 45.5279 21.7352 45.9519C21.8472 46.4725 21.9984 46.9864 22.1161 47.508C22.1196 47.5239 22.1284 47.5382 22.1411 47.5485C22.1538 47.5588 22.1697 47.5644 22.186 47.5645H24.8149C24.827 47.5644 24.8388 47.5604 24.8485 47.553C24.8582 47.5456 24.8652 47.5351 24.8685 47.5233C25.0178 46.9644 25.1598 46.4036 25.2944 45.8408C25.4227 45.302 26.4582 45.0647 26.9195 44.8695C27.4162 44.6599 27.5597 44.4866 28.1157 44.8063C28.5643 45.0653 29.0115 45.3327 29.4575 45.6083C29.4894 45.6281 29.5188 45.6249 29.5456 45.5987L31.3926 43.7516C31.4076 43.7364 31.4171 43.7165 31.4195 43.6954C31.4219 43.6742 31.4172 43.6529 31.406 43.6349C31.1725 43.2616 30.2538 41.963 30.4586 41.5572C30.7093 41.0602 30.9269 40.5494 31.1113 40.025C31.214 39.7315 31.3987 39.5522 31.6654 39.4871C32.2064 39.3538 32.7526 39.2166 33.3038 39.0756C33.326 39.0699 33.3457 39.057 33.3597 39.0389C33.3738 39.0209 33.3814 38.9988 33.3813 38.9761V36.417C33.3814 36.3925 33.3732 36.3687 33.3581 36.3494C33.343 36.3302 33.3219 36.3165 33.2981 36.3107C32.7755 36.1812 32.2396 36.0447 31.6903 35.9011C31.3955 35.8239 31.2015 35.6523 31.1084 35.3862C30.9125 34.8254 30.7211 34.3561 30.5342 33.9784C30.3957 33.699 30.4043 33.4269 30.56 33.1621C30.8414 32.6823 31.1224 32.213 31.4032 31.7543C31.4157 31.7338 31.421 31.7097 31.4182 31.6859C31.4154 31.6621 31.4047 31.64 31.3878 31.6232L29.5417 29.7895C29.5313 29.7794 29.5178 29.7729 29.5034 29.7712C29.4891 29.7694 29.4746 29.7725 29.4623 29.7799C29.0575 30.0269 27.7894 30.9418 27.3501 30.7245C26.8761 30.4904 26.3905 30.2846 25.8935 30.1072C25.5174 29.9723 25.3327 29.7694 25.2485 29.3981C25.1343 28.8928 25.0086 28.3833 24.8714 27.8697C24.868 27.8571 24.8607 27.846 24.8505 27.838C24.8403 27.83 24.8278 27.8257 24.8149 27.8257H22.185C22.1703 27.8257 22.156 27.8307 22.1444 27.8399C22.1328 27.8491 22.1245 27.8619 22.1209 27.8764C22.007 28.3492 21.7668 29.8747 21.3065 30.0364C20.7731 30.224 20.2505 30.4377 19.7389 30.6776C19.5675 30.758 19.2661 30.7992 19.1254 30.7188C18.5914 30.4138 18.0605 30.0993 17.5329 29.7752C17.5061 29.7586 17.4812 29.7614 17.4582 29.7838Z" fill="#C90526"/>
</svg>
