<svg width="49" height="49" viewBox="0 0 49 49" fill="none" xmlns="http://www.w3.org/2000/svg">
<g clip-path="url(#clip0_22_309)">
<path d="M16.636 0H25.1268C26.8542 0.161738 28.0859 1.48723 28.13 3.20318C28.1307 3.23619 28.1444 3.26759 28.168 3.29066C28.1916 3.31373 28.2233 3.32665 28.2563 3.32664C29.6842 3.33047 30.9924 4.20902 31.4001 5.59289C31.4914 5.90169 31.5357 6.42072 31.5332 7.14998C31.5306 8.23972 31.5341 9.32946 31.5437 10.4192C31.5437 10.4517 31.5577 10.4757 31.5858 10.491C32.6223 11.0575 32.8979 11.8605 32.8969 13.0214C32.895 14.6151 32.8969 16.2089 32.9027 17.8027C32.9084 19.4009 32.2701 20.6336 30.6623 21.0968C30.0268 21.2786 29.1923 21.1935 28.5013 21.2002C28.4819 21.2005 28.463 21.2055 28.4463 21.2149C28.4296 21.2243 28.4156 21.2376 28.4056 21.2537C27.7121 22.3862 26.8061 23.312 25.6876 24.0311C25.6589 24.0496 25.6407 24.0757 25.6331 24.1095C25.4972 24.7061 25.5565 25.2739 25.8111 25.813C25.8166 25.8245 25.8245 25.8347 25.8343 25.8427C25.8441 25.8508 25.8556 25.8566 25.8678 25.8597C25.8801 25.8628 25.8929 25.8631 25.9052 25.8607C25.9176 25.8583 25.9292 25.8531 25.9393 25.8456C27.616 24.6101 28.8487 26.5892 30.311 26.9912C30.9264 27.1605 32.9161 27.7635 33.2309 28.2994C33.4664 28.6995 33.1716 29.2986 32.7046 29.3512C32.5585 29.3671 32.3635 29.3174 32.1198 29.2019C31.4212 28.8714 30.7021 28.5974 29.9627 28.3798C29.9372 28.3721 29.9151 28.3776 29.8966 28.3961C28.4726 29.8233 27.0504 31.2461 25.6302 32.6644C25.1115 33.1819 24.4763 33.3612 23.7247 33.2023C23.6979 33.1965 23.6779 33.2055 23.6645 33.2291L22.8223 34.6838C22.8081 34.7085 22.803 34.7376 22.8079 34.7661L24.7277 45.5968C24.7317 45.6185 24.7432 45.6381 24.7602 45.6523C24.7771 45.6665 24.7985 45.6742 24.8205 45.6743C26.0883 45.675 27.3627 45.675 28.6439 45.6743C29.8574 45.6743 29.7339 47.108 28.7291 47.108C21.2023 47.1111 13.6756 47.1111 6.14887 47.108C5.14845 47.1073 4.51202 47.0821 4.23959 47.0323C2.80021 46.7682 1.57139 45.6686 1.16848 44.2436C1.0766 43.9175 1.02811 43.4473 1.02301 42.8329C1.01152 41.345 1.01344 40.3539 1.02875 39.8594C1.21633 33.7851 5.31721 28.6526 11.1465 26.9883C12.6873 26.549 13.7257 24.6608 15.5393 25.8408C15.5692 25.8599 15.5944 25.8552 15.6149 25.8264C15.9297 25.3948 15.8484 24.7058 15.835 24.1153C15.8347 24.1008 15.8308 24.0867 15.8236 24.074C15.8164 24.0613 15.8062 24.0505 15.7938 24.0425C13.5767 22.5879 12.2876 20.5347 11.9265 17.8831C11.9247 17.8687 11.9177 17.8554 11.9068 17.8455C11.8959 17.8357 11.8819 17.83 11.8671 17.8295C11.3494 17.8132 10.7713 17.8773 10.3139 17.7453C9.0592 17.3826 8.56729 16.4265 8.55771 15.19C8.55325 14.5009 8.55357 13.8119 8.55867 13.1228C8.56314 12.5033 8.61641 12.0557 8.7185 11.7801C8.92202 11.2288 9.30388 10.8017 9.86406 10.4986C9.89214 10.4833 9.90617 10.4597 9.90617 10.4278C9.90426 9.35913 9.90458 8.29172 9.90713 7.22559C9.91766 3.33525 12.7629 0.293809 16.636 0ZM11.3637 11.3341C11.3676 11.5849 11.5178 11.8844 11.7628 11.9744C12.3275 12.1817 12.879 12.3747 13.4175 12.5534C13.4368 12.5597 13.4572 12.5614 13.4773 12.5583C13.4973 12.5552 13.5163 12.5475 13.5328 12.5356C13.5492 12.5237 13.5626 12.5081 13.5718 12.4901C13.5811 12.4721 13.5859 12.4521 13.586 12.4318C13.5898 11.5577 13.5911 10.6932 13.5898 9.83828C13.5891 9.25066 13.6319 8.80596 13.718 8.50418C14.2377 6.68773 16.0685 5.82258 17.8562 6.214C18.3443 6.32023 18.909 6.5059 19.3846 6.57959C20.6587 6.77801 21.9128 6.69635 23.1467 6.33459C25.1077 5.75941 27.2026 6.4657 27.7491 8.57787C28.0161 9.61051 27.8677 11.2308 27.8754 12.4318C27.8754 12.4525 27.8805 12.4728 27.89 12.4912C27.8995 12.5095 27.9133 12.5253 27.9303 12.5373C27.9472 12.5492 27.9668 12.557 27.9873 12.56C28.0079 12.563 28.0289 12.561 28.0486 12.5543C28.5928 12.3699 29.1387 12.1792 29.6861 11.982C29.9856 11.8739 30.0986 11.5313 30.0986 11.2088C30.0979 9.74832 30.0983 8.28789 30.0995 6.82746C30.1005 5.88 29.8182 5.18424 28.8908 4.85885C28.5654 4.74496 28.1434 4.79186 27.8496 4.71338C27.2839 4.56217 26.8006 4.04154 26.7241 3.43287C26.6858 3.12088 26.6772 2.8175 26.5623 2.54666C26.1518 1.57719 25.4216 1.43555 24.3822 1.43555C22.1428 1.43427 19.9033 1.43523 17.6639 1.43842C16.1556 1.44033 15.0033 1.60877 13.8587 2.39832C12.212 3.53336 11.3784 5.14245 11.358 7.22559C11.3446 8.59542 11.3465 9.96493 11.3637 11.3341ZM23.8291 22.2653C21.692 21.5227 22.2634 18.3606 24.5248 18.3511C25.5919 18.3463 26.9653 18.1233 27.7988 18.9559C27.8033 18.9604 27.8088 18.9637 27.8149 18.9653C27.821 18.967 27.8275 18.967 27.8336 18.9653C27.8398 18.9637 27.8455 18.9605 27.8501 18.956C27.8548 18.9515 27.8582 18.9458 27.8601 18.9396C28.2927 17.4113 28.1568 15.6886 28.1644 14.0492C28.1644 14.0391 28.1606 14.0294 28.1536 14.0221C28.1467 14.0148 28.1372 14.0105 28.1271 14.01C27.3277 13.9794 26.807 13.6482 26.5652 13.0166C26.4753 12.7812 26.4319 12.3923 26.4351 11.85C26.4402 11.0263 26.4405 10.2029 26.436 9.37986C26.4293 8.01705 25.0895 7.34426 23.874 7.63328C23.4836 7.72643 23.0928 7.81512 22.7017 7.89934C21.5048 8.15773 20.3018 8.18708 19.0927 7.98738C18.4572 7.88307 17.5576 7.52322 16.8571 7.5615C15.7058 7.62467 15.0119 8.44963 15.0205 9.59424C15.0257 10.3305 15.0279 11.0668 15.0272 11.8031C15.0266 12.3964 14.9765 12.8153 14.877 13.0596C14.632 13.6581 14.1232 13.9746 13.3505 14.009C13.3225 14.0103 13.3078 14.025 13.3065 14.053C13.2325 15.5262 13.2494 16.749 13.3572 17.7213C13.8214 21.9055 18.0409 24.7795 22.1456 23.9593C23.3541 23.7181 24.4562 23.2118 25.4522 22.4405C25.459 22.4355 25.464 22.4285 25.4664 22.4204C25.4689 22.4124 25.4688 22.4038 25.466 22.3958C25.4632 22.3879 25.4579 22.3811 25.451 22.3764C25.444 22.3717 25.4357 22.3693 25.4273 22.3696C24.9076 22.3754 24.2875 22.4242 23.8291 22.2653ZM11.78 13.4903C11.0986 13.3429 10.5694 12.9783 10.1923 12.3964C10.0673 12.2031 10.0041 12.2216 10.0028 12.4519C9.99837 13.4045 9.99837 14.358 10.0028 15.3125C10.0086 16.4495 10.8546 16.4676 11.7896 16.3997C11.8253 16.3971 11.8432 16.3777 11.8432 16.3413V13.5688C11.8432 13.5506 11.8369 13.5329 11.8255 13.5187C11.814 13.5044 11.798 13.4944 11.78 13.4903ZM31.2863 12.361C30.9022 12.969 30.356 13.3503 29.6478 13.5047C29.6333 13.5075 29.6202 13.5155 29.6108 13.5272C29.6014 13.5389 29.5962 13.5536 29.5961 13.5688V16.3404C29.5961 16.3767 29.614 16.3962 29.6497 16.3987C30.6843 16.4686 31.4547 16.4322 31.4604 15.2369C31.4643 14.359 31.4643 13.4814 31.4604 12.6041C31.4604 12.4826 31.4269 12.3725 31.3925 12.2605C31.3903 12.2534 31.3864 12.2468 31.3811 12.2415C31.3759 12.2361 31.3694 12.2321 31.3623 12.2297C31.3552 12.2274 31.3476 12.2268 31.3402 12.228C31.3328 12.2292 31.3258 12.2321 31.3197 12.2366C31.2974 12.2519 31.2894 12.2752 31.2958 12.3065C31.2979 12.3155 31.2982 12.325 31.2966 12.3344C31.2949 12.3438 31.2914 12.3528 31.2863 12.361ZM29.5253 17.9128C29.5339 18.4516 29.2928 19.1971 29.1253 19.7177C29.1138 19.7534 29.1269 19.7713 29.1645 19.7713C29.5933 19.7665 30.0756 19.8067 30.4536 19.6593C30.9347 19.4724 31.2521 19.124 31.4059 18.6143C31.4891 18.3386 31.4576 18.0065 31.4719 17.6993C31.4738 17.6719 31.4614 17.662 31.4346 17.6697C30.8431 17.8458 30.2396 17.8974 29.6239 17.8247C29.6115 17.8232 29.5989 17.8244 29.587 17.8281C29.575 17.8319 29.564 17.8381 29.5547 17.8465C29.5454 17.8548 29.5379 17.865 29.5329 17.8764C29.5278 17.8879 29.5252 17.9002 29.5253 17.9128ZM26.9365 20.3407C26.9365 20.195 26.8787 20.0553 26.7756 19.9523C26.6726 19.8493 26.5329 19.7914 26.3872 19.7914H24.4789C24.3332 19.7914 24.1935 19.8493 24.0904 19.9523C23.9874 20.0553 23.9296 20.195 23.9296 20.3407V20.3848C23.9296 20.5305 23.9874 20.6702 24.0904 20.7732C24.1935 20.8762 24.3332 20.9341 24.4789 20.9341H26.3872C26.5329 20.9341 26.6726 20.8762 26.7756 20.7732C26.8787 20.6702 26.9365 20.5305 26.9365 20.3848V20.3407ZM16.8619 26.6849L20.6661 29.0976C20.6852 29.1096 20.7073 29.116 20.7299 29.116C20.7524 29.116 20.7744 29.1096 20.7934 29.0976L24.5889 26.6887C24.6075 26.677 24.6205 26.6584 24.6254 26.6369C24.6302 26.6154 24.6264 26.5928 24.6148 26.5739C24.3002 26.0667 24.156 25.5129 24.1822 24.9125C24.1835 24.8755 24.1666 24.863 24.1315 24.8752C23.7563 25.0034 23.3448 25.1565 23.0012 25.2436C21.0731 25.7336 19.1849 25.6066 17.3366 24.8627C17.3294 24.8598 17.3216 24.8588 17.3139 24.8596C17.3063 24.8605 17.2989 24.8634 17.2926 24.8679C17.2863 24.8723 17.2813 24.8783 17.2779 24.8853C17.2745 24.8923 17.273 24.9 17.2734 24.9077C17.3034 25.5138 17.1586 26.0721 16.8389 26.5825C16.8337 26.5908 16.8302 26.6001 16.8285 26.6097C16.8269 26.6194 16.8271 26.6292 16.8292 26.6387C16.8314 26.6482 16.8353 26.6572 16.8409 26.6651C16.8465 26.6731 16.8537 26.6798 16.8619 26.6849ZM16.8265 31.6031C17.0265 31.7993 17.2705 31.939 17.5069 31.7419C18.1602 31.197 18.8091 30.6566 19.4535 30.1206C19.4606 30.1147 19.4662 30.1072 19.4699 30.0987C19.4736 30.0902 19.4752 30.081 19.4746 30.0719C19.4741 30.0627 19.4713 30.0539 19.4667 30.046C19.462 30.0382 19.4555 30.0316 19.4478 30.0269L14.6023 26.9519C14.534 26.9086 14.4548 26.8852 14.3738 26.8845C14.2928 26.8839 14.2132 26.9059 14.1439 26.9481L12.9888 27.6553C12.9384 27.6866 12.9339 27.7233 12.9754 27.7654C14.2693 29.0797 15.553 30.3589 16.8265 31.6031ZM28.4362 27.6171C28.0942 27.4199 27.7535 27.217 27.4141 27.0084C27.0265 26.771 26.8552 26.9557 26.5403 27.1538C25.0187 28.1141 23.4976 29.0794 21.9772 30.0498C21.9735 30.0523 21.9703 30.0556 21.9681 30.0594C21.9658 30.0633 21.9645 30.0676 21.9643 30.0721C21.964 30.0765 21.9647 30.081 21.9665 30.0851C21.9682 30.0892 21.9709 30.0929 21.9743 30.0958C22.6079 30.6215 23.2411 31.1501 23.874 31.6816C24.1851 31.9438 24.4339 31.827 24.699 31.5619C25.9668 30.2955 27.2297 29.0325 28.4879 27.773C28.5018 27.7589 28.5103 27.7402 28.5119 27.7203C28.5134 27.7003 28.508 27.6804 28.4965 27.6639C28.4863 27.6499 28.4662 27.6343 28.4362 27.6171ZM11.4929 28.3855C6.63217 29.7637 3.12656 33.8837 2.54182 38.8842C2.40018 40.0987 2.46525 41.5974 2.46334 42.9382C2.46238 44.345 3.23375 45.503 4.72672 45.6418C5.81965 45.7442 6.99393 45.6753 8.08973 45.6743C8.09923 45.6743 8.10865 45.6724 8.11742 45.6688C8.12619 45.6651 8.13414 45.6597 8.14082 45.653C8.1475 45.6462 8.15277 45.6382 8.15632 45.6293C8.15987 45.6205 8.16163 45.6111 8.1615 45.6016C8.15704 44.6044 8.15672 43.6055 8.16055 42.6051C8.16118 42.3091 8.19053 42.0992 8.24859 41.9754C8.48307 41.4739 9.19701 41.4433 9.49082 41.9266C9.55909 42.0389 9.59322 42.2156 9.59322 42.4568C9.5945 43.507 9.59482 44.5485 9.59418 45.5815C9.59418 45.6064 9.60406 45.6302 9.62165 45.6478C9.63924 45.6654 9.66309 45.6753 9.68797 45.6753L16.6303 45.6724C16.6871 45.6724 16.7206 45.6443 16.7308 45.5882L18.6391 34.8178C18.6506 34.752 18.6397 34.6905 18.6065 34.633L17.8026 33.2501C17.7946 33.2366 17.783 33.2254 17.7692 33.218C17.7553 33.2106 17.7398 33.2071 17.7242 33.208C16.9595 33.253 16.436 33.2693 15.8685 32.6998C14.4393 31.2681 13.0073 29.837 11.5724 28.4066C11.55 28.3843 11.5236 28.3773 11.4929 28.3855ZM19.799 33.8253C19.8055 33.8363 19.8147 33.8455 19.8258 33.8519C19.8368 33.8582 19.8494 33.8616 19.8622 33.8617L21.5982 33.8559C21.611 33.8559 21.6235 33.8525 21.6346 33.8461C21.6457 33.8397 21.6549 33.8306 21.6614 33.8196L22.4624 32.4472C22.4712 32.4322 22.4744 32.4145 22.4715 32.3973C22.4685 32.3801 22.4595 32.3646 22.4462 32.3534L20.7752 30.9638C20.762 30.9529 20.7454 30.9469 20.7283 30.9469C20.7112 30.9469 20.6946 30.9529 20.6814 30.9638L19.0162 32.3563C19.0028 32.3675 18.9938 32.383 18.9908 32.4002C18.9879 32.4174 18.9911 32.435 18.9999 32.4501L19.799 33.8253ZM20.0765 35.2905C20.0592 35.2907 20.0424 35.2969 20.0292 35.3081C20.0159 35.3193 20.0069 35.3347 20.0038 35.3518L18.1883 45.5863C18.1864 45.597 18.1868 45.6081 18.1896 45.6187C18.1924 45.6293 18.1975 45.6392 18.2045 45.6476C18.2115 45.656 18.2203 45.6627 18.2303 45.6674C18.2402 45.672 18.2511 45.6744 18.262 45.6743H23.1946C23.2055 45.6744 23.2163 45.672 23.2263 45.6674C23.2362 45.6627 23.245 45.656 23.2521 45.6476C23.2591 45.6392 23.2642 45.6293 23.267 45.6187C23.2698 45.6081 23.2702 45.597 23.2682 45.5863L21.4537 35.3518C21.4506 35.3347 21.4416 35.3193 21.4284 35.3081C21.4151 35.2969 21.3983 35.2907 21.381 35.2905H20.0765Z" fill="#C90526"/>
<path d="M38.4669 49.0002H37.8219C28.5846 48.5848 24.7995 36.8995 32.2768 31.2721C34.946 29.2633 38.5836 28.7637 41.7151 29.9964C48.3616 32.612 50.1609 41.2731 44.9316 46.2621C43.163 47.949 41.0081 48.8617 38.4669 49.0002ZM46.5395 39.16C46.5395 36.9332 45.6549 34.7976 44.0803 33.2231C42.5057 31.6485 40.3702 30.7639 38.1434 30.7639C35.9166 30.7639 33.7811 31.6485 32.2065 33.2231C30.632 34.7976 29.7474 36.9332 29.7474 39.16C29.7474 41.3867 30.632 43.5223 32.2065 45.0969C33.7811 46.6714 35.9166 47.556 38.1434 47.556C40.3702 47.556 42.5057 46.6714 44.0803 45.0969C45.6549 43.5223 46.5395 41.3867 46.5395 39.16Z" fill="#C90526"/>
<path d="M39.221 41.0999C38.7405 41.0941 38.3529 40.6912 38.4668 40.2251C38.4821 40.1613 38.5871 39.9495 38.7817 39.5897C39.6934 37.9047 40.4507 36.5916 41.0537 35.6505C41.1985 35.4247 41.4046 35.2648 41.6719 35.1711C42.5064 34.8772 43.1132 35.5816 43.1122 36.3932C43.111 37.4631 43.1122 38.5344 43.1161 39.6069C43.1161 39.6413 43.1333 39.6589 43.1678 39.6595C44.0645 39.6902 44.2176 40.8099 43.3687 41.075C43.356 41.0788 43.3428 41.0807 43.3295 41.0807H43.1658C43.1288 41.0807 43.1097 41.0992 43.1084 41.1362C43.0893 41.7095 43.3266 43.1795 42.2404 42.9756C41.4346 42.8244 41.6576 41.7439 41.6805 41.1688C41.6811 41.1594 41.6797 41.1501 41.6764 41.1414C41.6732 41.1326 41.6682 41.1246 41.6617 41.1179C41.6552 41.1111 41.6475 41.1058 41.6388 41.1022C41.6302 41.0986 41.621 41.0968 41.6116 41.097C40.779 41.1066 39.9821 41.1075 39.221 41.0999ZM41.6116 37.4957L40.4086 39.605C40.4049 39.6115 40.403 39.619 40.403 39.6265C40.403 39.6341 40.4049 39.6414 40.4086 39.6479C40.4123 39.6544 40.4176 39.6598 40.424 39.6635C40.4303 39.6672 40.4376 39.6692 40.445 39.6691H41.6059C41.6247 39.6691 41.6427 39.6616 41.656 39.6484C41.6692 39.6351 41.6767 39.6171 41.6767 39.5983L41.6815 37.5148C41.6815 37.4204 41.6582 37.414 41.6116 37.4957Z" fill="#C90526"/>
<path d="M34.9995 41.713C34.9791 41.7385 34.9807 41.7621 35.0043 41.7838C35.033 41.8112 35.0697 41.8147 35.1144 41.7943C35.1431 41.7816 35.1731 41.7749 35.2044 41.7742C35.6867 41.7742 36.839 41.6632 37.24 41.8537C37.9137 42.1743 37.6524 43.1973 36.9366 43.204C36.3203 43.2104 35.2672 43.2091 33.7774 43.2002C32.852 43.1945 32.6768 42.4308 33.1678 41.7809C33.5666 41.2539 34.194 40.398 35.0503 39.2132C35.3871 38.7462 35.8446 38.1308 35.9001 37.6159C35.9891 36.7919 34.9929 36.3306 34.3737 36.8742C34.1784 37.0465 34.1181 37.2896 34.009 37.5384C33.6453 38.371 32.4165 37.9107 32.7295 36.8733C33.0855 35.6904 34.3239 34.987 35.5135 35.2559C36.7873 35.544 37.6304 36.8618 37.2754 38.1366C37.1937 38.4288 37.039 38.7612 36.8112 39.1338C36.2714 40.0174 35.6676 40.8772 34.9995 41.713Z" fill="#C90526"/>
</g>
<defs>
<clipPath id="clip0_22_309">
<rect width="49" height="49" fill="white"/>
</clipPath>
</defs>
</svg>
