<svg width="49" height="49" viewBox="0 0 49 49" fill="none" xmlns="http://www.w3.org/2000/svg">
<path d="M13.3257 14.8847L13.3295 22.7505C13.3295 22.764 13.3242 22.7769 13.3147 22.7864C13.3052 22.7959 13.2923 22.8013 13.2788 22.8013H10.1474C10.1339 22.8013 10.121 22.8066 10.1115 22.8161C10.102 22.8256 10.0967 22.8385 10.0967 22.852V40.8624C10.0967 40.8758 10.0913 40.8887 10.0818 40.8982C10.0723 40.9077 10.0594 40.9131 10.046 40.9131H8.61615C8.6027 40.9131 8.5898 40.9077 8.58029 40.8982C8.57077 40.8887 8.56543 40.8758 8.56543 40.8624V22.852C8.56543 22.8385 8.56009 22.8256 8.55057 22.8161C8.54106 22.8066 8.52816 22.8013 8.51471 22.8013H5.4101C5.39665 22.8013 5.38374 22.7959 5.37423 22.7864C5.36472 22.7769 5.35938 22.764 5.35938 22.7505V14.8847C5.35938 14.8713 5.36472 14.8584 5.37423 14.8488C5.38374 14.8393 5.39665 14.834 5.4101 14.834H8.51566C8.52912 14.834 8.54202 14.8286 8.55153 14.8191C8.56104 14.8096 8.56639 14.7967 8.56639 14.7833L8.56447 8.13764C8.56447 8.12418 8.56982 8.11128 8.57933 8.10177C8.58884 8.09226 8.60174 8.08691 8.6152 8.08691H10.046C10.0594 8.08691 10.0723 8.09226 10.0818 8.10177C10.0913 8.11128 10.0967 8.12418 10.0967 8.13764V14.7833C10.0967 14.7967 10.102 14.8096 10.1115 14.8191C10.121 14.8286 10.1339 14.834 10.1474 14.834H13.275C13.2816 14.834 13.2882 14.8353 13.2944 14.8378C13.3005 14.8404 13.3061 14.8441 13.3108 14.8488C13.3156 14.8535 13.3193 14.8591 13.3218 14.8653C13.3244 14.8715 13.3257 14.878 13.3257 14.8847Z" fill="#C90526"/>
<path d="M16.0934 34.166H13.0013C12.986 34.166 12.9714 34.16 12.9607 34.1492C12.9499 34.1384 12.9438 34.1238 12.9438 34.1086V26.2562C12.9438 26.2486 12.9453 26.2411 12.9482 26.2342C12.9511 26.2272 12.9553 26.2209 12.9607 26.2155C12.966 26.2102 12.9723 26.206 12.9793 26.2031C12.9863 26.2002 12.9937 26.1987 13.0013 26.1987H16.0925C16.1077 26.1987 16.1223 26.1927 16.1331 26.1819C16.1439 26.1711 16.1499 26.1565 16.1499 26.1413V8.14434C16.1499 8.12911 16.156 8.1145 16.1667 8.10373C16.1775 8.09296 16.1921 8.08691 16.2073 8.08691H17.6237C17.639 8.08691 17.6536 8.09296 17.6643 8.10373C17.6751 8.1145 17.6812 8.12911 17.6812 8.14434V26.1413C17.6812 26.1565 17.6872 26.1711 17.698 26.1819C17.7087 26.1927 17.7233 26.1987 17.7386 26.1987H20.8537C20.8613 26.1987 20.8687 26.2002 20.8757 26.2031C20.8827 26.206 20.889 26.2102 20.8943 26.2155C20.8996 26.2209 20.9039 26.2272 20.9068 26.2342C20.9096 26.2411 20.9111 26.2486 20.9111 26.2562V34.1086C20.9111 34.1238 20.9051 34.1384 20.8943 34.1492C20.8835 34.16 20.8689 34.166 20.8537 34.166H17.7386C17.731 34.166 17.7236 34.1675 17.7166 34.1704C17.7096 34.1733 17.7033 34.1775 17.698 34.1828C17.6926 34.1882 17.6884 34.1945 17.6855 34.2015C17.6826 34.2084 17.6812 34.2159 17.6812 34.2234V40.8557C17.6812 40.8709 17.6751 40.8855 17.6643 40.8963C17.6536 40.907 17.639 40.9131 17.6237 40.9131H16.2064C16.1911 40.9131 16.1765 40.907 16.1658 40.8963C16.155 40.8855 16.1489 40.8709 16.1489 40.8557L16.1509 34.2234C16.1509 34.2159 16.1494 34.2084 16.1465 34.2015C16.1436 34.1945 16.1394 34.1882 16.134 34.1828C16.1287 34.1775 16.1224 34.1733 16.1154 34.1704C16.1084 34.1675 16.101 34.166 16.0934 34.166Z" fill="#C90526"/>
<path d="M20.5283 22.7448V14.8904C20.5283 14.8755 20.5343 14.8611 20.5449 14.8505C20.5554 14.8399 20.5698 14.834 20.5848 14.834H23.6779C23.6929 14.834 23.7072 14.828 23.7178 14.8174C23.7284 14.8069 23.7344 14.7925 23.7344 14.7775V8.14338C23.7344 8.13596 23.7358 8.12862 23.7387 8.12177C23.7415 8.11492 23.7457 8.1087 23.7509 8.10345C23.7562 8.09821 23.7624 8.09405 23.7692 8.09121C23.7761 8.08837 23.7834 8.08691 23.7908 8.08691H25.2092C25.2166 8.08691 25.2239 8.08837 25.2308 8.09121C25.2376 8.09405 25.2438 8.09821 25.2491 8.10345C25.2543 8.1087 25.2585 8.11492 25.2613 8.12177C25.2642 8.12862 25.2656 8.13596 25.2656 8.14338V14.7775C25.2656 14.7925 25.2716 14.8069 25.2822 14.8174C25.2928 14.828 25.3071 14.834 25.3221 14.834H28.4152C28.4302 14.834 28.4446 14.8399 28.4551 14.8505C28.4657 14.8611 28.4717 14.8755 28.4717 14.8904L28.4726 22.7448C28.4726 22.7598 28.4667 22.7741 28.4561 22.7847C28.4455 22.7953 28.4311 22.8013 28.4162 22.8013H25.3221C25.3071 22.8013 25.2928 22.8072 25.2822 22.8178C25.2716 22.8284 25.2656 22.8428 25.2656 22.8577V40.8566C25.2656 40.8716 25.2597 40.886 25.2491 40.8965C25.2385 40.9071 25.2241 40.9131 25.2092 40.9131H23.7908C23.7759 40.9131 23.7615 40.9071 23.7509 40.8965C23.7403 40.886 23.7344 40.8716 23.7344 40.8566V22.8577C23.7344 22.8428 23.7284 22.8284 23.7178 22.8178C23.7072 22.8072 23.6929 22.8013 23.6779 22.8013H20.5848C20.5698 22.8013 20.5554 22.7953 20.5449 22.7847C20.5343 22.7741 20.5283 22.7598 20.5283 22.7448Z" fill="#C90526"/>
<path d="M32.8501 34.2244V40.8547C32.8501 40.8702 32.8439 40.885 32.833 40.896C32.8221 40.9069 32.8072 40.9131 32.7917 40.9131H31.3772C31.3617 40.9131 31.3469 40.9069 31.3359 40.896C31.325 40.885 31.3188 40.8702 31.3188 40.8547V34.2244C31.3188 34.2167 31.3173 34.2091 31.3144 34.2021C31.3115 34.195 31.3072 34.1885 31.3018 34.1831C31.2963 34.1777 31.2899 34.1734 31.2828 34.1705C31.2757 34.1675 31.2681 34.166 31.2605 34.166H28.1472C28.1318 34.166 28.1169 34.1599 28.106 34.1489C28.095 34.138 28.0889 34.1231 28.0889 34.1076V26.2571C28.0889 26.2494 28.0904 26.2419 28.0933 26.2348C28.0962 26.2277 28.1005 26.2212 28.106 26.2158C28.1114 26.2104 28.1178 26.2061 28.1249 26.2032C28.132 26.2002 28.1396 26.1987 28.1472 26.1987H31.2605C31.2681 26.1987 31.2757 26.1972 31.2828 26.1943C31.2899 26.1914 31.2963 26.1871 31.3018 26.1816C31.3072 26.1762 31.3115 26.1698 31.3144 26.1627C31.3173 26.1556 31.3188 26.148 31.3188 26.1404V8.14529C31.3188 8.12981 31.325 8.11496 31.3359 8.10401C31.3469 8.09306 31.3617 8.08691 31.3772 8.08691H32.7917C32.8072 8.08691 32.8221 8.09306 32.833 8.10401C32.8439 8.11496 32.8501 8.12981 32.8501 8.14529V26.1404C32.8501 26.1558 32.8562 26.1707 32.8672 26.1816C32.8781 26.1926 32.893 26.1987 32.9085 26.1987H35.9978C36.0054 26.1987 36.013 26.2002 36.0201 26.2032C36.0272 26.2061 36.0336 26.2104 36.0391 26.2158C36.0445 26.2212 36.0488 26.2277 36.0517 26.2348C36.0546 26.2419 36.0562 26.2494 36.0562 26.2571L36.0571 34.1076C36.0571 34.1231 36.051 34.138 36.04 34.1489C36.0291 34.1599 36.0142 34.166 35.9987 34.166H32.9085C32.893 34.166 32.8781 34.1722 32.8672 34.1831C32.8562 34.1941 32.8501 34.2089 32.8501 34.2244Z" fill="#C90526"/>
<path d="M38.9607 8.08691H40.3781C40.3933 8.08691 40.4079 8.09296 40.4187 8.10373C40.4295 8.1145 40.4355 8.12911 40.4355 8.14434L40.4336 14.7766C40.4336 14.7918 40.4396 14.8064 40.4504 14.8172C40.4612 14.8279 40.4758 14.834 40.491 14.834H43.5832C43.5984 14.834 43.613 14.84 43.6238 14.8508C43.6346 14.8616 43.6406 14.8762 43.6406 14.8914V22.7438C43.6406 22.7591 43.6346 22.7737 43.6238 22.7845C43.613 22.7952 43.5984 22.8013 43.5832 22.8013H40.491C40.4758 22.8013 40.4612 22.8073 40.4504 22.8181C40.4396 22.8289 40.4336 22.8435 40.4336 22.8587L40.4346 40.8557C40.4346 40.8632 40.4331 40.8707 40.4302 40.8776C40.4273 40.8846 40.4231 40.8909 40.4177 40.8963C40.4124 40.9016 40.4061 40.9058 40.3991 40.9087C40.3921 40.9116 40.3847 40.9131 40.3771 40.9131H38.9607C38.9532 40.9131 38.9457 40.9116 38.9387 40.9087C38.9318 40.9058 38.9255 40.9016 38.9201 40.8963C38.9148 40.8909 38.9106 40.8846 38.9077 40.8776C38.9048 40.8707 38.9033 40.8632 38.9033 40.8557V22.8587C38.9033 22.8435 38.8973 22.8289 38.8865 22.8181C38.8757 22.8073 38.8611 22.8013 38.8459 22.8013H35.7298C35.7146 22.8013 35.7 22.7952 35.6892 22.7845C35.6784 22.7737 35.6724 22.7591 35.6724 22.7438L35.6733 14.8914C35.6733 14.8839 35.6748 14.8764 35.6777 14.8694C35.6806 14.8625 35.6848 14.8561 35.6901 14.8508C35.6955 14.8455 35.7018 14.8412 35.7088 14.8384C35.7157 14.8355 35.7232 14.834 35.7307 14.834H38.8459C38.8611 14.834 38.8757 14.8279 38.8865 14.8172C38.8973 14.8064 38.9033 14.7918 38.9033 14.7766V8.14434C38.9033 8.1368 38.9048 8.12933 38.9077 8.12236C38.9106 8.11539 38.9148 8.10906 38.9201 8.10373C38.9255 8.0984 38.9318 8.09417 38.9387 8.09128C38.9457 8.0884 38.9532 8.08691 38.9607 8.08691Z" fill="#C90526"/>
</svg>
