<svg width="49" height="49" viewBox="0 0 49 49" fill="none" xmlns="http://www.w3.org/2000/svg">
<g clip-path="url(#clip0_22_149)">
<path d="M3.88268 0H45.0819C47.2582 0.135898 48.8402 1.75137 49 3.93053V45.1298C48.7531 47.3482 47.2936 48.8143 45.0465 49H3.91809C1.6882 48.777 0.246914 47.3568 0 45.1183V3.89512C0.156953 1.7552 1.74563 0.164609 3.88268 0ZM3.39842 1.73223C1.22117 2.37918 1.61643 4.76793 1.62887 6.46283C1.62912 6.48119 1.63659 6.49872 1.64966 6.51162C1.66274 6.52451 1.68037 6.53174 1.69873 6.53174H47.3061C47.3488 6.53174 47.3702 6.51068 47.3702 6.46857C47.3845 4.72199 47.7693 2.4165 45.6504 1.76572C45.3467 1.67257 44.8631 1.626 44.1995 1.626C31.0206 1.62663 17.8416 1.62727 4.66266 1.62791C4.05462 1.62791 3.63321 1.66268 3.39842 1.73223ZM11.4365 8.21229C11.4365 8.19833 11.431 8.18494 11.4211 8.17507C11.4112 8.16519 11.3978 8.15965 11.3839 8.15965H1.67959C1.67268 8.15965 1.66583 8.16101 1.65945 8.16366C1.65306 8.1663 1.64726 8.17018 1.64237 8.17507C1.63748 8.17995 1.63361 8.18576 1.63096 8.19214C1.62831 8.19853 1.62695 8.20537 1.62695 8.21229V33.4205C1.62695 33.4274 1.62831 33.4342 1.63096 33.4406C1.63361 33.447 1.63748 33.4528 1.64237 33.4577C1.64726 33.4626 1.65306 33.4665 1.65945 33.4691C1.66583 33.4718 1.67268 33.4731 1.67959 33.4731H11.3839C11.3978 33.4731 11.4112 33.4676 11.4211 33.4577C11.431 33.4478 11.4365 33.4344 11.4365 33.4205V8.21229ZM47.373 8.21229C47.373 8.20525 47.3717 8.19828 47.369 8.19178C47.3663 8.18527 47.3623 8.17937 47.3573 8.17439C47.3524 8.16941 47.3465 8.16546 47.34 8.16277C47.3335 8.16008 47.3265 8.15869 47.3195 8.15869H13.1171C13.11 8.15869 13.1031 8.16008 13.0966 8.16277C13.0901 8.16546 13.0842 8.16941 13.0792 8.17439C13.0742 8.17937 13.0702 8.18527 13.0676 8.19178C13.0649 8.19828 13.0635 8.20525 13.0635 8.21229V33.4186C13.0635 33.4328 13.0691 33.4464 13.0792 33.4565C13.0892 33.4665 13.1029 33.4722 13.1171 33.4722H47.3195C47.3337 33.4722 47.3473 33.4665 47.3573 33.4565C47.3674 33.4464 47.373 33.4328 47.373 33.4186V8.21229ZM1.72648 45.5681C2.03369 46.662 3.02709 47.375 4.16309 47.375C17.5283 47.3737 30.8939 47.3734 44.2598 47.374C44.8825 47.374 45.3429 47.3284 45.6408 47.2371C46.4575 46.987 46.9899 46.4553 47.2381 45.6418C47.3306 45.34 47.3762 44.8621 47.375 44.2081C47.3718 41.1903 47.3715 38.1785 47.374 35.1728C47.374 35.1596 47.3688 35.147 47.3594 35.1376C47.3501 35.1283 47.3374 35.123 47.3242 35.123H1.67576C1.66307 35.123 1.6509 35.1281 1.64193 35.1371C1.63295 35.146 1.62791 35.1582 1.62791 35.1709C1.62536 38.2053 1.626 41.2394 1.62982 44.2732C1.63046 44.91 1.66268 45.3416 1.72648 45.5681Z" fill="#C90526"/>
<path d="M4.95074 3.28607L4.04348 3.2829C3.62804 3.28145 3.29008 3.61705 3.28863 4.0325L3.28828 4.13394C3.28683 4.54938 3.62244 4.88734 4.03788 4.88879L4.94514 4.89196C5.36058 4.89341 5.69853 4.5578 5.69998 4.14236L5.70034 4.04091C5.70179 3.62547 5.36618 3.28752 4.95074 3.28607Z" fill="#C90526"/>
<path d="M9.02201 3.2829L8.11284 3.28607C7.69793 3.28752 7.36275 3.62505 7.36419 4.03996L7.36456 4.14332C7.366 4.55823 7.70353 4.89341 8.11844 4.89196L9.02762 4.88879C9.44253 4.88734 9.77771 4.54981 9.77626 4.1349L9.7759 4.03154C9.77445 3.61663 9.43692 3.28145 9.02201 3.2829Z" fill="#C90526"/>
<path d="M13.114 3.28607L12.2049 3.2829C11.7894 3.28145 11.4515 3.61705 11.45 4.0325L11.4497 4.13394C11.4482 4.54938 11.7838 4.88734 12.1993 4.88879L13.1084 4.89196C13.5239 4.89341 13.8618 4.55781 13.8633 4.14237L13.8636 4.04092C13.8651 3.62548 13.5295 3.28752 13.114 3.28607Z" fill="#C90526"/>
<path d="M44.9279 3.27783H40.0068C39.5702 3.27783 39.2163 3.63175 39.2163 4.06834V4.11045C39.2163 4.54703 39.5702 4.90096 40.0068 4.90096H44.9279C45.3645 4.90096 45.7184 4.54703 45.7184 4.11045V4.06834C45.7184 3.63175 45.3645 3.27783 44.9279 3.27783Z" fill="#C90526"/>
<path d="M4.8321 13.877C4.46364 13.877 3.98895 13.9354 3.68462 13.7698C3.12762 13.4645 3.14102 12.6491 3.70759 12.3496C3.99852 12.1955 4.48278 12.2472 4.8388 12.251C4.85452 12.2512 4.86977 12.2456 4.88174 12.2354C4.8937 12.2252 4.90156 12.211 4.90387 12.1955C5.03403 11.3236 6.13749 11.1408 6.47723 11.9744C6.50307 12.0385 6.49446 12.1237 6.51743 12.1965C6.52891 12.2315 6.55284 12.2491 6.58921 12.2491C7.29741 12.251 8.00466 12.251 8.71095 12.2491C9.0038 12.2485 9.21881 12.2826 9.35598 12.3515C10.1628 12.7582 9.801 13.8732 8.89087 13.8751C8.11567 13.877 7.34239 13.8776 6.57102 13.877C6.56829 13.8769 6.56559 13.8778 6.56334 13.8796C6.56109 13.8813 6.55942 13.8838 6.55858 13.8866C6.475 14.1852 6.34197 14.404 6.1595 14.5431C5.63505 14.9422 5.00341 14.546 4.89526 13.9306C4.89257 13.9156 4.88477 13.902 4.87323 13.8922C4.86169 13.8824 4.84713 13.877 4.8321 13.877Z" fill="#C90526"/>
<path d="M31.8538 12.2557H31.8366C31.3926 12.2557 31.0327 12.6157 31.0327 13.0596V28.5923C31.0327 29.0362 31.3926 29.3962 31.8366 29.3962H31.8538C32.2978 29.3962 32.6578 29.0362 32.6578 28.5923V13.0596C32.6578 12.6157 32.2978 12.2557 31.8538 12.2557Z" fill="#C90526"/>
<path d="M22.0587 13.073H22.0376C21.5883 13.073 21.2241 13.4372 21.2241 13.8865V27.7519C21.2241 28.2012 21.5883 28.5654 22.0376 28.5654H22.0587C22.5079 28.5654 22.8721 28.2012 22.8721 27.7519V13.8865C22.8721 13.4372 22.5079 13.073 22.0587 13.073Z" fill="#C90526"/>
<path d="M35.1336 13.8979H35.1106C34.6677 13.8979 34.3086 14.257 34.3086 14.6999V26.9499C34.3086 27.3929 34.6677 27.7519 35.1106 27.7519H35.1336C35.5765 27.7519 35.9355 27.3929 35.9355 26.9499V14.6999C35.9355 14.257 35.5765 13.8979 35.1336 13.8979Z" fill="#C90526"/>
<path d="M28.6018 14.7144H28.5789C28.1365 14.7144 27.7778 15.073 27.7778 15.5154V26.1365C27.7778 26.5789 28.1365 26.9376 28.5789 26.9376H28.6018C29.0442 26.9376 29.4029 26.5789 29.4029 26.1365V15.5154C29.4029 15.073 29.0442 14.7144 28.6018 14.7144Z" fill="#C90526"/>
<path d="M6.53355 17.0897C6.71347 16.0829 8.02748 16.0915 8.16338 17.1012C8.16784 17.1343 8.18666 17.1516 8.21984 17.1528C8.56341 17.1615 8.99216 17.1069 9.27832 17.217C9.79703 17.416 9.93867 18.0314 9.61902 18.4621C9.29363 18.9004 8.70984 18.7674 8.22175 18.7846C8.18858 18.7859 8.16944 18.8031 8.16433 18.8363C8.00929 19.8498 6.71156 19.8488 6.53355 18.8344C6.52781 18.7999 6.50739 18.7827 6.4723 18.7827C5.74113 18.7814 5.01315 18.7804 4.28836 18.7798C2.90162 18.7779 2.98009 17.1337 4.19935 17.1548C4.95604 17.1682 5.71274 17.165 6.46943 17.1452C6.5058 17.1439 6.52717 17.1254 6.53355 17.0897Z" fill="#C90526"/>
<path d="M25.3376 16.3462L25.305 16.3461C24.8653 16.3453 24.5082 16.7012 24.5074 17.141L24.4945 24.5082C24.4938 24.9479 24.8496 25.3051 25.2894 25.3058L25.3219 25.3059C25.7617 25.3067 26.1188 24.9508 26.1196 24.511L26.1324 17.1438C26.1332 16.7041 25.7773 16.3469 25.3376 16.3462Z" fill="#C90526"/>
<path d="M18.7946 17.1615L18.7563 17.1616C18.3186 17.1623 17.9645 17.5177 17.9653 17.9554L17.9753 23.6995C17.976 24.1371 18.3314 24.4913 18.7691 24.4905L18.8074 24.4904C19.245 24.4897 19.5992 24.1343 19.5984 23.6966L19.5884 17.9526C19.5876 17.5149 19.2322 17.1608 18.7946 17.1615Z" fill="#C90526"/>
<path d="M38.3908 17.1615L38.3525 17.1616C37.9148 17.1623 37.5607 17.5177 37.5614 17.9554L37.5715 23.6995C37.5722 24.1371 37.9276 24.4913 38.3653 24.4905L38.4036 24.4904C38.8412 24.4897 39.1954 24.1343 39.1946 23.6966L39.1846 17.9526C39.1838 17.5149 38.8284 17.1608 38.3908 17.1615Z" fill="#C90526"/>
<path d="M41.6778 17.9769H41.6299C41.1949 17.9769 40.8423 18.3296 40.8423 18.7646V22.876C40.8423 23.311 41.1949 23.6636 41.6299 23.6636H41.6778C42.1128 23.6636 42.4654 23.311 42.4654 22.876V18.7646C42.4654 18.3296 42.1128 17.9769 41.6778 17.9769Z" fill="#C90526"/>
<path d="M15.5498 18.7961H15.4828C15.0499 18.7961 14.699 19.1471 14.699 19.58V22.0587C14.699 22.4915 15.0499 22.8425 15.4828 22.8425H15.5498C15.9827 22.8425 16.3336 22.4915 16.3336 22.0587V19.58C16.3336 19.1471 15.9827 18.7961 15.5498 18.7961Z" fill="#C90526"/>
<path d="M44.9591 19.6162L44.8557 19.6165C44.4403 19.618 44.1047 19.9559 44.1061 20.3714L44.1093 21.2767C44.1108 21.6921 44.4487 22.0278 44.8641 22.0263L44.9675 22.0259C45.3829 22.0245 45.7186 21.6865 45.7171 21.2711L45.7139 20.3658C45.7125 19.9503 45.3745 19.6147 44.9591 19.6162Z" fill="#C90526"/>
<path d="M6.59499 22.05C7.32552 22.0698 8.05606 22.073 8.78659 22.0596C9.04818 22.0545 9.24501 22.0883 9.37708 22.161C9.98767 22.496 9.90153 23.3898 9.24884 23.6281C9.14612 23.6658 8.98661 23.6846 8.77032 23.6846C8.04489 23.6846 7.31914 23.6856 6.59308 23.6875C6.55926 23.6875 6.53916 23.7044 6.53278 23.7382C6.33755 24.7622 5.02259 24.7268 4.90104 23.7382C4.89466 23.6859 4.86531 23.6626 4.813 23.6683C4.43018 23.7133 3.92296 23.7315 3.60331 23.5219C3.10948 23.1965 3.19179 22.3237 3.76792 22.1151C4.04833 22.0136 4.49143 22.0691 4.83788 22.0557C4.85322 22.0553 4.86791 22.0495 4.87944 22.0393C4.89097 22.0292 4.8986 22.0154 4.90104 22.0002C5.0446 20.9944 6.36147 20.9772 6.53087 21.9945C6.53725 22.0302 6.55862 22.0487 6.59499 22.05Z" fill="#C90526"/>
<path d="M6.54041 26.8944C6.64855 26.0695 7.65535 25.8656 8.06304 26.5576C8.12525 26.6638 8.12812 26.7758 8.16162 26.9059C8.17055 26.9397 8.19224 26.9554 8.2267 26.9528C8.60472 26.927 9.08324 26.8897 9.40384 27.0868C9.85078 27.3605 9.94935 28.0266 9.50242 28.3893C9.18947 28.6439 8.75785 28.5951 8.2334 28.5913C8.20086 28.5906 8.18076 28.6062 8.1731 28.6381C7.94054 29.6593 6.65812 29.6325 6.53945 28.6372C6.53498 28.6008 6.51457 28.583 6.4782 28.5836C5.71066 28.5938 4.94727 28.5967 4.18802 28.5922C2.99269 28.5846 2.93336 26.972 4.20812 26.9519C4.96545 26.9404 5.72342 26.9381 6.48203 26.9452C6.49618 26.9455 6.50997 26.9405 6.52074 26.9311C6.53152 26.9218 6.53852 26.9087 6.54041 26.8944Z" fill="#C90526"/>
<path d="M5.72029 40.0785C5.71646 41.0534 5.71582 42.0277 5.71837 43.0013C5.71901 43.2744 5.69317 43.4734 5.64085 43.5985C5.3681 44.2493 4.42925 44.2569 4.1565 43.5975C4.11183 43.4884 4.08982 43.3235 4.09046 43.1027C4.09429 42.0947 4.09397 41.0876 4.0895 40.0814C4.0895 40.0457 4.07132 40.0246 4.03495 40.0182C3.02529 39.8555 3.00614 38.5923 4.03495 38.3779C4.06877 38.3709 4.08631 38.3501 4.08759 38.3157C4.10195 37.9616 4.03495 37.5252 4.16894 37.2285C4.36513 36.7969 4.88958 36.6189 5.30685 36.8658C5.8313 37.1758 5.7222 37.8113 5.71741 38.3291C5.71741 38.3635 5.73432 38.383 5.76814 38.3874C6.77206 38.5195 6.78833 39.8249 5.77101 40.0182C5.73719 40.0246 5.72029 40.0447 5.72029 40.0785Z" fill="#C90526"/>
<path d="M8.90524 41.6299C8.56741 41.6376 8.25733 41.3227 8.20852 41.0117C8.11091 40.3973 8.4095 40.1456 8.95022 40.0164C8.9664 40.0126 8.98074 40.0032 8.99071 39.9899C9.00068 39.9766 9.00566 39.9602 9.00477 39.9436C8.94161 38.6542 8.93874 37.813 8.99616 37.4199C9.10909 36.6476 10.2269 36.5155 10.5332 37.2333C10.5938 37.3749 10.6238 37.6158 10.6231 37.9559C10.6225 38.6226 10.6225 39.29 10.6231 39.958C10.6233 39.972 10.6284 39.9855 10.6375 39.9961C10.6466 40.0068 10.6591 40.0139 10.6729 40.0164C11.6739 40.1848 11.6787 41.4816 10.671 41.6462C10.6371 41.6519 10.6206 41.672 10.6212 41.7065C10.6244 41.9457 10.6247 42.4469 10.6222 43.21C10.6183 44.3182 9.07272 44.4436 8.99807 43.2406C8.96809 42.757 8.96298 42.2462 8.98276 41.7084C8.9833 41.6981 8.98167 41.6878 8.97799 41.6782C8.97431 41.6686 8.96865 41.6598 8.96137 41.6524C8.95409 41.6451 8.94535 41.6392 8.93569 41.6354C8.92603 41.6315 8.91566 41.6296 8.90524 41.6299Z" fill="#C90526"/>
<path d="M13.8788 38.3186C13.8699 37.842 13.8772 37.5344 13.9008 37.396C14.007 36.7634 14.8818 36.5328 15.3028 37.0247C15.5718 37.3386 15.5392 37.9013 15.5124 38.3214C15.5116 38.3365 15.5164 38.3514 15.526 38.3631C15.5355 38.3748 15.5492 38.3825 15.5641 38.3846C16.5709 38.532 16.5843 39.8422 15.566 40.0173C15.5341 40.023 15.5185 40.0419 15.5191 40.0738C15.5345 41.0876 15.5338 42.1001 15.5172 43.1114C15.4952 44.457 13.8836 44.2952 13.8797 43.3238C13.8759 42.2411 13.8753 41.1523 13.8778 40.0575C13.8779 40.0468 13.8741 40.0363 13.867 40.0282C13.86 40.0201 13.8502 40.0149 13.8395 40.0135C12.8385 39.8881 12.7945 38.5952 13.8309 38.3789C13.8635 38.3718 13.8794 38.3518 13.8788 38.3186Z" fill="#C90526"/>
<path d="M20.4145 42.5285C20.3954 42.8625 20.4566 43.2903 20.3571 43.5612C20.1322 44.1775 19.3101 44.2866 18.9378 43.7449C18.7244 43.4339 18.7722 42.9448 18.7856 42.5496C18.7865 42.5256 18.7782 42.5021 18.7624 42.4839C18.7467 42.4656 18.7245 42.4539 18.7005 42.451C17.7272 42.3419 17.7291 41.0222 18.732 40.8308C18.7452 40.8283 18.7572 40.8212 18.7657 40.8107C18.7743 40.8002 18.779 40.787 18.7789 40.7733C18.7847 39.8055 18.7853 38.8376 18.7809 37.8697C18.7796 37.5896 18.8029 37.3883 18.8507 37.2658C19.1972 36.3806 20.4059 36.6992 20.4078 37.6678C20.4091 38.7026 20.4094 39.7378 20.4088 40.7733C20.4088 40.7875 20.4138 40.8012 20.4229 40.812C20.432 40.8229 20.4446 40.8302 20.4585 40.8327C21.4816 41.0011 21.4778 42.3113 20.4719 42.4644C20.4566 42.4668 20.4425 42.4745 20.432 42.4861C20.4216 42.4978 20.4154 42.5128 20.4145 42.5285Z" fill="#C90526"/>
<path d="M25.368 37.5721C26.3777 37.7013 26.3882 39.0086 25.3632 39.2019C25.3499 39.2043 25.3379 39.2114 25.3292 39.2219C25.3204 39.2323 25.3156 39.2456 25.3154 39.2593C25.3103 40.5149 25.3103 41.7702 25.3154 43.0252C25.316 43.2772 25.294 43.461 25.2493 43.5765C24.9909 44.2473 24.0521 44.2674 23.7612 43.6071C23.7101 43.4916 23.6849 43.3184 23.6856 43.0874C23.6894 41.8101 23.6891 40.5325 23.6846 39.2545C23.684 39.2207 23.667 39.2016 23.6339 39.1971C22.6232 39.0535 22.6137 37.7434 23.63 37.5673C23.6613 37.5622 23.6795 37.5437 23.6846 37.5118C23.8272 36.5107 25.1364 36.4897 25.3106 37.5165C25.3163 37.5497 25.3355 37.5682 25.368 37.5721Z" fill="#C90526"/>
<path d="M28.5367 42.4567C27.5251 42.3256 27.5232 40.9724 28.5195 40.8393C28.5393 40.8368 28.5576 40.8269 28.5708 40.8116C28.584 40.7963 28.5913 40.7765 28.5913 40.7561C28.5906 39.7595 28.591 38.7537 28.5922 37.7386C28.5951 36.3834 30.2221 36.5394 30.2192 37.5634C30.2154 38.6347 30.2157 39.7059 30.2201 40.7771C30.2208 40.8103 30.2374 40.8295 30.2699 40.8346C31.2815 40.9992 31.2786 42.2902 30.2689 42.4692C30.2364 42.4749 30.2198 42.4944 30.2192 42.5275C30.2144 42.8501 30.2556 43.2597 30.1685 43.5257C29.9493 44.1947 29.0382 44.3009 28.6937 43.6731C28.53 43.3755 28.5932 42.8826 28.5903 42.5161C28.59 42.5014 28.5844 42.4873 28.5745 42.4764C28.5647 42.4656 28.5513 42.4586 28.5367 42.4567Z" fill="#C90526"/>
<path d="M33.4837 39.1263C33.4598 38.6631 33.3727 37.5262 33.6139 37.1357C33.9517 36.5902 34.7661 36.6486 35.0245 37.2132C35.2236 37.6468 35.1193 38.6057 35.126 39.1397C35.126 39.1716 35.1416 39.1911 35.1729 39.1981C36.1883 39.424 36.1701 40.6796 35.1786 40.8308C35.1638 40.8329 35.1502 40.8403 35.1404 40.8517C35.1305 40.8632 35.1251 40.8778 35.125 40.893C35.1212 41.5699 35.1202 42.2424 35.1221 42.9104C35.1228 43.2167 35.1033 43.4285 35.0638 43.5459C34.7604 44.4436 33.5306 44.1976 33.4933 43.2052C33.4639 42.4319 33.4601 41.6698 33.4818 40.9188C33.4823 40.9059 33.4785 40.8931 33.4709 40.8824C33.4633 40.8717 33.4523 40.8637 33.4397 40.8595C33.0275 40.7274 32.7828 40.5035 32.7056 40.1877C32.586 39.6996 32.9181 39.2699 33.4138 39.2086C33.4337 39.2062 33.4519 39.1964 33.4649 39.1812C33.4778 39.1659 33.4846 39.1463 33.4837 39.1263Z" fill="#C90526"/>
<path d="M38.3233 41.6443C37.3146 41.4978 37.329 40.1867 38.3281 40.0154C38.3415 40.0129 38.3536 40.0059 38.3624 39.9956C38.3711 39.9853 38.3759 39.9723 38.376 39.9589C38.3772 39.2641 38.3785 38.5693 38.3798 37.8745C38.3798 37.5657 38.4075 37.3504 38.463 37.2285C38.8372 36.4083 39.957 36.6916 40.002 37.6123C40.0409 38.3926 40.0441 39.1719 40.0115 39.9503C40.0109 39.9622 40.0145 39.9738 40.0214 39.9833C40.0284 39.9927 40.0385 39.9993 40.0498 40.002C40.2501 40.0537 40.4122 40.128 40.536 40.225C41.07 40.6422 40.7953 41.6318 40.0919 41.6318C40.0441 41.6318 40.0205 41.6561 40.0211 41.7046C40.0288 42.1993 40.1245 43.3526 39.8651 43.7411C39.5158 44.2637 38.7147 44.1823 38.4669 43.6244C38.2745 43.1918 38.3769 42.2099 38.3769 41.7065C38.3769 41.6913 38.3714 41.6766 38.3616 41.6652C38.3517 41.6538 38.3381 41.6463 38.3233 41.6443Z" fill="#C90526"/>
<path d="M43.2798 39.9532C43.2843 39.2584 43.2846 38.5639 43.2807 37.8697C43.2795 37.5896 43.3028 37.3883 43.3506 37.2658C43.6961 36.3806 44.9048 36.6983 44.9067 37.6678C44.9087 38.4347 44.9093 39.192 44.9087 39.9398C44.908 39.9851 44.93 40.0113 44.9747 40.0183C45.9911 40.1934 45.9643 41.495 44.9622 41.6538C44.9284 41.6589 44.9112 41.6787 44.9106 41.7132C44.9058 42.1993 45.0197 43.2473 44.8158 43.655C44.5077 44.2713 43.632 44.2244 43.3573 43.6014C43.1783 43.1985 43.2807 42.1802 43.2827 41.7199C43.2826 41.7 43.2754 41.6809 43.2623 41.6661C43.2493 41.6513 43.2313 41.6418 43.2118 41.6395C42.2213 41.5141 42.2223 40.2058 43.2291 40.0135C43.2622 40.0071 43.2791 39.987 43.2798 39.9532Z" fill="#C90526"/>
</g>
<defs>
<clipPath id="clip0_22_149">
<rect width="49" height="49" fill="white"/>
</clipPath>
</defs>
</svg>
