<svg xmlns="http://www.w3.org/2000/svg" width="38.167" height="28.21" viewBox="0 0 38.167 28.21">
  <g id="Page-1" transform="translate(-0.999 -3)" opacity="0.5">
    <g id="flat" transform="translate(0.999 3)">
      <g id="quote-left-saying-speech" transform="translate(0)">
        <path id="Combined-Shape" d="M10.127,0c5.3,0,9.127,4.376,9.126,10.855-.034,9.414-7.111,16.07-17.32,17.348a.83.83,0,0,1-.44-1.581c3.917-1.742,5.9-3.952,6.151-6.14a2.978,2.978,0,0,0-1.813-3.335C2.939,16.452,1,12.849,1,9.127A9.127,9.127,0,0,1,10.127,0Z" transform="translate(-0.999)" fill="#fff"/>
        <path id="Combined-Shape-2" data-name="Combined-Shape" d="M22.127,0c5.3,0,9.127,4.376,9.126,10.855-.034,9.414-7.111,16.07-17.32,17.348a.83.83,0,0,1-.44-1.581c3.917-1.742,5.9-3.952,6.151-6.14a2.978,2.978,0,0,0-1.813-3.335c-2.893-.7-4.831-4.3-4.831-8.02A9.127,9.127,0,0,1,22.127,0Z" transform="translate(6.914)" fill="#fff"/>
      </g>
    </g>
  </g>
</svg>
