<svg width="46" height="46" viewBox="0 0 46 46" fill="none" xmlns="http://www.w3.org/2000/svg">
<path d="M23 0.5C18.5499 0.5 14.1998 1.8196 10.4997 4.29193C6.79957 6.76427 3.91569 10.2783 2.21272 14.3896C0.509749 18.501 0.0641738 23.025 0.932341 27.3895C1.80051 31.7541 3.94343 35.7632 7.09011 38.9099C10.2368 42.0566 14.2459 44.1995 18.6105 45.0677C22.9751 45.9358 27.4991 45.4903 31.6104 43.7873C35.7217 42.0843 39.2357 39.2004 41.7081 35.5003C44.1804 31.8002 45.5 27.4501 45.5 23C45.5 20.0453 44.918 17.1194 43.7873 14.3896C42.6566 11.6598 40.9992 9.17942 38.9099 7.0901C36.8206 5.00078 34.3402 3.34344 31.6104 2.21271C28.8806 1.08198 25.9548 0.5 23 0.5ZM18.5 33.125V12.875L32 23L18.5 33.125Z" fill="white"/>
</svg>
