<svg xmlns="http://www.w3.org/2000/svg" version="1.1" xmlns:xlink="http://www.w3.org/1999/xlink" width="512" height="512" x="0" y="0" viewBox="0 0 512 512" style="enable-background:new 0 0 512 512" xml:space="preserve" class=""><g><path fill-rule="evenodd" d="M89.72 319.16v170.82H21.99V319.16zm12 26.95V462.7l62.99 12.46c3.94.78 7.34 1.09 11.35 1.01l116.92-2.21c.06-.01.12-.01.18-.01 3.88.08 7.68-.95 11.02-2.89l174.96-101.01c10.38-5.99 13.95-19.32 7.96-29.71-5.84-10.11-18.99-13.55-29.93-7.83l-108.83 56.83c-.17 1.92-.51 3.84-1.02 5.74-2.33 8.68-7.92 15.95-15.74 20.47-7.83 4.51-16.92 5.72-25.6 3.4l-103.37-27.7a6 6 0 0 1-4.24-7.35c.85-3.2 4.15-5.09 7.34-4.24l103.38 27.7c5.58 1.49 11.44.71 16.49-2.2 5.05-2.92 8.65-7.6 10.15-13.18 1.49-5.58.71-11.44-2.2-16.49-2.92-5.05-7.6-8.65-13.18-10.15l-151.58-40.61c-1.79.57-4.95 1.6-8.45 2.74-16.8 5.45-46.68 15.16-58.6 18.64zm45.71-56.28c-23.86 0-47.1-12.37-59.86-34.48-9.22-15.95-11.66-34.54-6.89-52.34s16.18-32.68 32.14-41.89a68.536 68.536 0 0 1 34.38-9.23c23.86 0 47.1 12.37 59.86 34.48 19.02 32.94 7.69 75.22-25.25 94.24-10.84 6.25-22.68 9.23-34.38 9.22zm-13.97-88.22c0-7.3 6.22-13.24 13.85-13.24 7.64 0 13.86 5.94 13.86 13.24 0 3.32 2.68 6 6 6 3.31 0 6-2.68 6-6 0-11.9-8.49-21.9-19.86-24.55v-8.17c0-3.31-2.68-6-6-6-3.31 0-6 2.69-6 6v8.17c-11.37 2.65-19.85 12.65-19.85 24.55 0 15.34 10.15 25.25 25.85 25.25 11.45 0 13.86 7.2 13.86 13.25 0 7.3-6.22 13.25-13.86 13.25-7.63 0-13.85-5.95-13.85-13.25 0-3.32-2.69-6-6-6s-6 2.68-6 6c0 11.9 8.48 21.9 19.85 24.55v8.17c0 3.31 2.69 6 6 6 3.32 0 6-2.69 6-6v-8.17c11.37-2.65 19.86-12.65 19.86-24.55 0-15.34-10.15-25.25-25.86-25.25-11.45 0-13.85-7.19-13.85-13.25zm94.85-55.55c24.5 18.51 58.62 18.51 83.12 0-3.67-16.25-18.25-28.12-35.18-28.12h-12.76c-16.93 0-31.51 11.86-35.18 28.12zm62.12-37.97c14.08 4.38 25.55 15.08 30.8 28.96 11.4-12.67 17.64-28.89 17.64-46.07 0-18.43-7.18-35.76-20.21-48.79-13.45-13.45-31.12-20.18-48.79-20.18s-35.34 6.73-48.79 20.18c-13.03 13.03-20.21 30.36-20.21 48.79 0 17.18 6.24 33.4 17.64 46.07 5.25-13.88 16.72-24.58 30.79-28.96-7.56-6.05-12.43-15.35-12.43-25.78 0-18.19 14.81-32.99 33-32.99s32.99 14.8 32.99 32.99c0 10.43-4.86 19.73-12.43 25.78zm-20.56-4.78c11.58 0 20.99-9.42 20.99-21 0-11.57-9.41-20.99-20.99-20.99s-21 9.42-21 20.99c0 11.58 9.42 21 21 21zm71.98 123.88a6 6 0 0 0-2.19-8.2l-1.7-.98c2.45-3.17 5.3-6.02 8.48-8.47l.97 1.7c1.11 1.92 3.13 3 5.2 3 1.02 0 2.05-.26 3-.81a5.989 5.989 0 0 0 2.19-8.19l-.98-1.72c3.64-1.51 7.53-2.56 11.58-3.09v1.97c0 3.31 2.68 6 6 6 3.31 0 6-2.69 6-6v-1.97c4.05.53 7.93 1.58 11.58 3.09l-.99 1.72c-1.65 2.87-.67 6.54 2.2 8.19.94.55 1.98.81 2.99.81 2.08 0 4.09-1.08 5.21-3l.97-1.7a46.52 46.52 0 0 1 8.47 8.47l-1.69.98a6.012 6.012 0 0 0-2.2 8.2c1.12 1.92 3.13 3 5.21 3 1.01 0 2.05-.26 2.99-.81l1.71-.98c1.52 3.64 2.57 7.53 3.1 11.58h-1.97c-3.31 0-6 2.68-6 6 0 3.31 2.69 6 6 6h1.97c-.53 4.05-1.58 7.93-3.1 11.58l-1.71-.99c-2.87-1.66-6.54-.67-8.2 2.2-1.65 2.87-.67 6.54 2.2 8.19l1.69.98a45.898 45.898 0 0 1-8.47 8.47l-.97-1.69a6.012 6.012 0 0 0-8.2-2.2 6.012 6.012 0 0 0-2.2 8.2l.99 1.71a45.396 45.396 0 0 1-11.58 3.1v-1.97c0-3.32-2.69-6-6-6-3.32 0-6 2.68-6 6v1.97c-4.05-.53-7.94-1.58-11.58-3.1l.98-1.71c1.66-2.87.68-6.54-2.19-8.2s-6.54-.67-8.2 2.2l-.97 1.69a45.898 45.898 0 0 1-8.47-8.47l1.69-.98c2.87-1.65 3.85-5.32 2.19-8.19-1.65-2.87-5.32-3.85-8.19-2.2l-1.71.99a45.396 45.396 0 0 1-3.1-11.58h1.97c3.31 0 6-2.69 6-6 0-3.32-2.69-6-6-6h-1.97c.53-4.05 1.58-7.94 3.1-11.58l1.71.98a5.9 5.9 0 0 0 2.99.81c2.07 0 4.09-1.08 5.2-3zm32.55 24.79h18.31c3.31 0 6-2.69 6-6 0-3.32-2.69-6-6-6H380.4V218.8c0-3.31-2.69-6-6-6-3.32 0-6 2.69-6 6v27.18c0 3.32 2.68 6 6 6zm-57.96-5.99c0 31.95 26 57.95 57.96 57.95s57.95-26 57.95-57.95c0-31.96-25.99-57.96-57.95-57.96-31.96-.01-57.96 25.99-57.96 57.96zm4.06-47.95c4.89-5.48 6.29-12.98 3.77-19.81l16.53-9.54c4.64 5.6 11.84 8.13 19.03 6.64 3.41-.71 6.9-1.17 10.37-1.37 7.32-.43 13.61-4.74 16.65-11.33l18.42 4.93c-.82 7.36 2.45 14.37 8.71 18.49 2.83 1.86 5.55 3.95 8.09 6.2 5.6 4.96 13.2 6.3 20.08 3.61l9.52 16.5c-5.7 4.66-8.28 11.92-6.75 19.19a72.68 72.68 0 0 1 1.39 10.26c.46 7.35 4.8 13.62 11.44 16.62l-4.94 18.43c-7.32-.64-14.01 2.62-18.06 8.83a70.769 70.769 0 0 1-6.42 8.41c-4.81 5.43-6.22 12.85-3.79 19.61L408 323.26c-4.65-5.59-11.84-8.13-19.04-6.64-3.41.71-6.9 1.17-10.37 1.37-7.32.43-13.61 4.74-16.65 11.34l-18.43-4.94c.66-7.23-2.63-14.11-8.75-18.14a72.2 72.2 0 0 1-8.3-6.37c-5.48-4.89-12.98-6.3-19.8-3.77l-9.55-16.53c5.6-4.65 8.13-11.84 6.64-19.03a71.08 71.08 0 0 1-1.37-10.38c-.43-7.32-4.74-13.61-11.33-16.65l4.94-18.43c7.23.67 14.1-2.63 18.14-8.75 1.9-2.91 4.05-5.69 6.37-8.3z" clip-rule="evenodd" fill="#ffffff" opacity="1" data-original="#000000" class=""></path></g></svg>